%TF.GenerationSoftware,KiCad,Pcbnew,(5.1.6)-1*%
%TF.CreationDate,2021-04-07T17:59:20+02:00*%
%TF.ProjectId,touch_button_tester,746f7563-685f-4627-9574-746f6e5f7465,rev?*%
%TF.SameCoordinates,Original*%
%TF.FileFunction,Legend,Top*%
%TF.FilePolarity,Positive*%
%FSLAX46Y46*%
G04 Gerber Fmt 4.6, Leading zero omitted, Abs format (unit mm)*
G04 Created by KiCad (PCBNEW (5.1.6)-1) date 2021-04-07 17:59:20*
%MOMM*%
%LPD*%
G01*
G04 APERTURE LIST*
%ADD10C,0.120000*%
%ADD11C,0.150000*%
G04 APERTURE END LIST*
D10*
X72356571Y-74519285D02*
X72356571Y-75055000D01*
X72320857Y-75162142D01*
X72249428Y-75233571D01*
X72142285Y-75269285D01*
X72070857Y-75269285D01*
X73070857Y-75269285D02*
X72713714Y-75269285D01*
X72713714Y-74519285D01*
X73749428Y-75197857D02*
X73713714Y-75233571D01*
X73606571Y-75269285D01*
X73535142Y-75269285D01*
X73428000Y-75233571D01*
X73356571Y-75162142D01*
X73320857Y-75090714D01*
X73285142Y-74947857D01*
X73285142Y-74840714D01*
X73320857Y-74697857D01*
X73356571Y-74626428D01*
X73428000Y-74555000D01*
X73535142Y-74519285D01*
X73606571Y-74519285D01*
X73713714Y-74555000D01*
X73749428Y-74590714D01*
X74285142Y-74519285D02*
X74285142Y-75055000D01*
X74249428Y-75162142D01*
X74178000Y-75233571D01*
X74070857Y-75269285D01*
X73999428Y-75269285D01*
X74999428Y-75269285D02*
X74642285Y-75269285D01*
X74642285Y-74519285D01*
X75678000Y-75197857D02*
X75642285Y-75233571D01*
X75535142Y-75269285D01*
X75463714Y-75269285D01*
X75356571Y-75233571D01*
X75285142Y-75162142D01*
X75249428Y-75090714D01*
X75213714Y-74947857D01*
X75213714Y-74840714D01*
X75249428Y-74697857D01*
X75285142Y-74626428D01*
X75356571Y-74555000D01*
X75463714Y-74519285D01*
X75535142Y-74519285D01*
X75642285Y-74555000D01*
X75678000Y-74590714D01*
X76213714Y-74519285D02*
X76213714Y-75055000D01*
X76178000Y-75162142D01*
X76106571Y-75233571D01*
X75999428Y-75269285D01*
X75928000Y-75269285D01*
X76928000Y-75269285D02*
X76570857Y-75269285D01*
X76570857Y-74519285D01*
X77606571Y-75197857D02*
X77570857Y-75233571D01*
X77463714Y-75269285D01*
X77392285Y-75269285D01*
X77285142Y-75233571D01*
X77213714Y-75162142D01*
X77178000Y-75090714D01*
X77142285Y-74947857D01*
X77142285Y-74840714D01*
X77178000Y-74697857D01*
X77213714Y-74626428D01*
X77285142Y-74555000D01*
X77392285Y-74519285D01*
X77463714Y-74519285D01*
X77570857Y-74555000D01*
X77606571Y-74590714D01*
X78142285Y-74519285D02*
X78142285Y-75055000D01*
X78106571Y-75162142D01*
X78035142Y-75233571D01*
X77928000Y-75269285D01*
X77856571Y-75269285D01*
X78856571Y-75269285D02*
X78499428Y-75269285D01*
X78499428Y-74519285D01*
X79535142Y-75197857D02*
X79499428Y-75233571D01*
X79392285Y-75269285D01*
X79320857Y-75269285D01*
X79213714Y-75233571D01*
X79142285Y-75162142D01*
X79106571Y-75090714D01*
X79070857Y-74947857D01*
X79070857Y-74840714D01*
X79106571Y-74697857D01*
X79142285Y-74626428D01*
X79213714Y-74555000D01*
X79320857Y-74519285D01*
X79392285Y-74519285D01*
X79499428Y-74555000D01*
X79535142Y-74590714D01*
D11*
X118237928Y-74449142D02*
X118752214Y-74449142D01*
X118495071Y-75349142D02*
X118495071Y-74449142D01*
X118923642Y-74449142D02*
X119437928Y-74449142D01*
X119180785Y-75349142D02*
X119180785Y-74449142D01*
X119737928Y-75349142D02*
X119737928Y-74449142D01*
X120080785Y-74449142D01*
X120166500Y-74492000D01*
X120209357Y-74534857D01*
X120252214Y-74620571D01*
X120252214Y-74749142D01*
X120209357Y-74834857D01*
X120166500Y-74877714D01*
X120080785Y-74920571D01*
X119737928Y-74920571D01*
X120595071Y-74534857D02*
X120637928Y-74492000D01*
X120723642Y-74449142D01*
X120937928Y-74449142D01*
X121023642Y-74492000D01*
X121066500Y-74534857D01*
X121109357Y-74620571D01*
X121109357Y-74706285D01*
X121066500Y-74834857D01*
X120552214Y-75349142D01*
X121109357Y-75349142D01*
X121452214Y-74534857D02*
X121495071Y-74492000D01*
X121580785Y-74449142D01*
X121795071Y-74449142D01*
X121880785Y-74492000D01*
X121923642Y-74534857D01*
X121966500Y-74620571D01*
X121966500Y-74706285D01*
X121923642Y-74834857D01*
X121409357Y-75349142D01*
X121966500Y-75349142D01*
X122266500Y-74449142D02*
X122823642Y-74449142D01*
X122523642Y-74792000D01*
X122652214Y-74792000D01*
X122737928Y-74834857D01*
X122780785Y-74877714D01*
X122823642Y-74963428D01*
X122823642Y-75177714D01*
X122780785Y-75263428D01*
X122737928Y-75306285D01*
X122652214Y-75349142D01*
X122395071Y-75349142D01*
X122309357Y-75306285D01*
X122266500Y-75263428D01*
X123766500Y-74449142D02*
X124280785Y-74449142D01*
X124023642Y-75349142D02*
X124023642Y-74449142D01*
X124709357Y-75349142D02*
X124623642Y-75306285D01*
X124580785Y-75263428D01*
X124537928Y-75177714D01*
X124537928Y-74920571D01*
X124580785Y-74834857D01*
X124623642Y-74792000D01*
X124709357Y-74749142D01*
X124837928Y-74749142D01*
X124923642Y-74792000D01*
X124966500Y-74834857D01*
X125009357Y-74920571D01*
X125009357Y-75177714D01*
X124966500Y-75263428D01*
X124923642Y-75306285D01*
X124837928Y-75349142D01*
X124709357Y-75349142D01*
X125780785Y-74749142D02*
X125780785Y-75349142D01*
X125395071Y-74749142D02*
X125395071Y-75220571D01*
X125437928Y-75306285D01*
X125523642Y-75349142D01*
X125652214Y-75349142D01*
X125737928Y-75306285D01*
X125780785Y-75263428D01*
X126595071Y-75306285D02*
X126509357Y-75349142D01*
X126337928Y-75349142D01*
X126252214Y-75306285D01*
X126209357Y-75263428D01*
X126166500Y-75177714D01*
X126166500Y-74920571D01*
X126209357Y-74834857D01*
X126252214Y-74792000D01*
X126337928Y-74749142D01*
X126509357Y-74749142D01*
X126595071Y-74792000D01*
X126980785Y-75349142D02*
X126980785Y-74449142D01*
X127366500Y-75349142D02*
X127366500Y-74877714D01*
X127323642Y-74792000D01*
X127237928Y-74749142D01*
X127109357Y-74749142D01*
X127023642Y-74792000D01*
X126980785Y-74834857D01*
X128352214Y-74449142D02*
X128866500Y-74449142D01*
X128609357Y-75349142D02*
X128609357Y-74449142D01*
X129509357Y-75306285D02*
X129423642Y-75349142D01*
X129252214Y-75349142D01*
X129166500Y-75306285D01*
X129123642Y-75220571D01*
X129123642Y-74877714D01*
X129166500Y-74792000D01*
X129252214Y-74749142D01*
X129423642Y-74749142D01*
X129509357Y-74792000D01*
X129552214Y-74877714D01*
X129552214Y-74963428D01*
X129123642Y-75049142D01*
X129895071Y-75306285D02*
X129980785Y-75349142D01*
X130152214Y-75349142D01*
X130237928Y-75306285D01*
X130280785Y-75220571D01*
X130280785Y-75177714D01*
X130237928Y-75092000D01*
X130152214Y-75049142D01*
X130023642Y-75049142D01*
X129937928Y-75006285D01*
X129895071Y-74920571D01*
X129895071Y-74877714D01*
X129937928Y-74792000D01*
X130023642Y-74749142D01*
X130152214Y-74749142D01*
X130237928Y-74792000D01*
X130537928Y-74749142D02*
X130880785Y-74749142D01*
X130666500Y-74449142D02*
X130666500Y-75220571D01*
X130709357Y-75306285D01*
X130795071Y-75349142D01*
X130880785Y-75349142D01*
X118195071Y-75949142D02*
X118709357Y-75949142D01*
X118452214Y-76849142D02*
X118452214Y-75949142D01*
X119009357Y-76849142D02*
X119009357Y-76249142D01*
X119009357Y-75949142D02*
X118966500Y-75992000D01*
X119009357Y-76034857D01*
X119052214Y-75992000D01*
X119009357Y-75949142D01*
X119009357Y-76034857D01*
X119437928Y-76849142D02*
X119437928Y-76249142D01*
X119437928Y-76334857D02*
X119480785Y-76292000D01*
X119566500Y-76249142D01*
X119695071Y-76249142D01*
X119780785Y-76292000D01*
X119823642Y-76377714D01*
X119823642Y-76849142D01*
X119823642Y-76377714D02*
X119866500Y-76292000D01*
X119952214Y-76249142D01*
X120080785Y-76249142D01*
X120166500Y-76292000D01*
X120209357Y-76377714D01*
X120209357Y-76849142D01*
X121795071Y-75992000D02*
X121709357Y-75949142D01*
X121580785Y-75949142D01*
X121452214Y-75992000D01*
X121366500Y-76077714D01*
X121323642Y-76163428D01*
X121280785Y-76334857D01*
X121280785Y-76463428D01*
X121323642Y-76634857D01*
X121366500Y-76720571D01*
X121452214Y-76806285D01*
X121580785Y-76849142D01*
X121666500Y-76849142D01*
X121795071Y-76806285D01*
X121837928Y-76763428D01*
X121837928Y-76463428D01*
X121666500Y-76463428D01*
X122352214Y-76849142D02*
X122266500Y-76806285D01*
X122223642Y-76763428D01*
X122180785Y-76677714D01*
X122180785Y-76420571D01*
X122223642Y-76334857D01*
X122266500Y-76292000D01*
X122352214Y-76249142D01*
X122480785Y-76249142D01*
X122566500Y-76292000D01*
X122609357Y-76334857D01*
X122652214Y-76420571D01*
X122652214Y-76677714D01*
X122609357Y-76763428D01*
X122566500Y-76806285D01*
X122480785Y-76849142D01*
X122352214Y-76849142D01*
X123166500Y-76849142D02*
X123080785Y-76806285D01*
X123037928Y-76720571D01*
X123037928Y-75949142D01*
X123637928Y-76849142D02*
X123552214Y-76806285D01*
X123509357Y-76720571D01*
X123509357Y-75949142D01*
X124023642Y-76806285D02*
X124023642Y-76849142D01*
X123980785Y-76934857D01*
X123937928Y-76977714D01*
X125266500Y-75949142D02*
X125352214Y-75949142D01*
X125437928Y-75992000D01*
X125480785Y-76034857D01*
X125523642Y-76120571D01*
X125566500Y-76292000D01*
X125566500Y-76506285D01*
X125523642Y-76677714D01*
X125480785Y-76763428D01*
X125437928Y-76806285D01*
X125352214Y-76849142D01*
X125266500Y-76849142D01*
X125180785Y-76806285D01*
X125137928Y-76763428D01*
X125095071Y-76677714D01*
X125052214Y-76506285D01*
X125052214Y-76292000D01*
X125095071Y-76120571D01*
X125137928Y-76034857D01*
X125180785Y-75992000D01*
X125266500Y-75949142D01*
X125866500Y-75949142D02*
X126423642Y-75949142D01*
X126123642Y-76292000D01*
X126252214Y-76292000D01*
X126337928Y-76334857D01*
X126380785Y-76377714D01*
X126423642Y-76463428D01*
X126423642Y-76677714D01*
X126380785Y-76763428D01*
X126337928Y-76806285D01*
X126252214Y-76849142D01*
X125995071Y-76849142D01*
X125909357Y-76806285D01*
X125866500Y-76763428D01*
X127452214Y-75906285D02*
X126680785Y-77063428D01*
X127709357Y-76034857D02*
X127752214Y-75992000D01*
X127837928Y-75949142D01*
X128052214Y-75949142D01*
X128137928Y-75992000D01*
X128180785Y-76034857D01*
X128223642Y-76120571D01*
X128223642Y-76206285D01*
X128180785Y-76334857D01*
X127666500Y-76849142D01*
X128223642Y-76849142D01*
X128780785Y-75949142D02*
X128866500Y-75949142D01*
X128952214Y-75992000D01*
X128995071Y-76034857D01*
X129037928Y-76120571D01*
X129080785Y-76292000D01*
X129080785Y-76506285D01*
X129037928Y-76677714D01*
X128995071Y-76763428D01*
X128952214Y-76806285D01*
X128866500Y-76849142D01*
X128780785Y-76849142D01*
X128695071Y-76806285D01*
X128652214Y-76763428D01*
X128609357Y-76677714D01*
X128566500Y-76506285D01*
X128566500Y-76292000D01*
X128609357Y-76120571D01*
X128652214Y-76034857D01*
X128695071Y-75992000D01*
X128780785Y-75949142D01*
X129423642Y-76034857D02*
X129466500Y-75992000D01*
X129552214Y-75949142D01*
X129766500Y-75949142D01*
X129852214Y-75992000D01*
X129895071Y-76034857D01*
X129937928Y-76120571D01*
X129937928Y-76206285D01*
X129895071Y-76334857D01*
X129380785Y-76849142D01*
X129937928Y-76849142D01*
X130795071Y-76849142D02*
X130280785Y-76849142D01*
X130537928Y-76849142D02*
X130537928Y-75949142D01*
X130452214Y-76077714D01*
X130366500Y-76163428D01*
X130280785Y-76206285D01*
X106465714Y-79817261D02*
X106465714Y-79436309D01*
X106132380Y-79674404D02*
X106989523Y-79674404D01*
X107084761Y-79626785D01*
X107132380Y-79531547D01*
X107132380Y-79436309D01*
X106132380Y-79198214D02*
X106132380Y-78579166D01*
X106513333Y-78912500D01*
X106513333Y-78769642D01*
X106560952Y-78674404D01*
X106608571Y-78626785D01*
X106703809Y-78579166D01*
X106941904Y-78579166D01*
X107037142Y-78626785D01*
X107084761Y-78674404D01*
X107132380Y-78769642D01*
X107132380Y-79055357D01*
X107084761Y-79150595D01*
X107037142Y-79198214D01*
X103925714Y-79817261D02*
X103925714Y-79436309D01*
X103592380Y-79674404D02*
X104449523Y-79674404D01*
X104544761Y-79626785D01*
X104592380Y-79531547D01*
X104592380Y-79436309D01*
X103687619Y-79150595D02*
X103640000Y-79102976D01*
X103592380Y-79007738D01*
X103592380Y-78769642D01*
X103640000Y-78674404D01*
X103687619Y-78626785D01*
X103782857Y-78579166D01*
X103878095Y-78579166D01*
X104020952Y-78626785D01*
X104592380Y-79198214D01*
X104592380Y-78579166D01*
X101385714Y-79817261D02*
X101385714Y-79436309D01*
X101052380Y-79674404D02*
X101909523Y-79674404D01*
X102004761Y-79626785D01*
X102052380Y-79531547D01*
X102052380Y-79436309D01*
X102052380Y-78579166D02*
X102052380Y-79150595D01*
X102052380Y-78864880D02*
X101052380Y-78864880D01*
X101195238Y-78960119D01*
X101290476Y-79055357D01*
X101338095Y-79150595D01*
X98560000Y-80420595D02*
X98512380Y-80515833D01*
X98512380Y-80658690D01*
X98560000Y-80801547D01*
X98655238Y-80896785D01*
X98750476Y-80944404D01*
X98940952Y-80992023D01*
X99083809Y-80992023D01*
X99274285Y-80944404D01*
X99369523Y-80896785D01*
X99464761Y-80801547D01*
X99512380Y-80658690D01*
X99512380Y-80563452D01*
X99464761Y-80420595D01*
X99417142Y-80372976D01*
X99083809Y-80372976D01*
X99083809Y-80563452D01*
X99512380Y-79944404D02*
X98512380Y-79944404D01*
X99512380Y-79372976D01*
X98512380Y-79372976D01*
X99512380Y-78896785D02*
X98512380Y-78896785D01*
X98512380Y-78658690D01*
X98560000Y-78515833D01*
X98655238Y-78420595D01*
X98750476Y-78372976D01*
X98940952Y-78325357D01*
X99083809Y-78325357D01*
X99274285Y-78372976D01*
X99369523Y-78420595D01*
X99464761Y-78515833D01*
X99512380Y-78658690D01*
X99512380Y-78896785D01*
X96591428Y-80944404D02*
X96591428Y-80182500D01*
X96972380Y-80563452D02*
X96210476Y-80563452D01*
X95972380Y-79230119D02*
X95972380Y-79706309D01*
X96448571Y-79753928D01*
X96400952Y-79706309D01*
X96353333Y-79611071D01*
X96353333Y-79372976D01*
X96400952Y-79277738D01*
X96448571Y-79230119D01*
X96543809Y-79182500D01*
X96781904Y-79182500D01*
X96877142Y-79230119D01*
X96924761Y-79277738D01*
X96972380Y-79372976D01*
X96972380Y-79611071D01*
X96924761Y-79706309D01*
X96877142Y-79753928D01*
X95972380Y-78896785D02*
X96972380Y-78563452D01*
X95972380Y-78230119D01*
D10*
%TO.C,C1*%
X84530000Y-89161252D02*
X84530000Y-88638748D01*
X83110000Y-89161252D02*
X83110000Y-88638748D01*
%TO.C,C2*%
X106120000Y-89161252D02*
X106120000Y-88638748D01*
X104700000Y-89161252D02*
X104700000Y-88638748D01*
%TO.C,C3*%
X127710000Y-89161252D02*
X127710000Y-88638748D01*
X126290000Y-89161252D02*
X126290000Y-88638748D01*
%TO.C,C4*%
X79300000Y-83446252D02*
X79300000Y-82923748D01*
X80720000Y-83446252D02*
X80720000Y-82923748D01*
%TO.C,C5*%
X100890000Y-83446252D02*
X100890000Y-82923748D01*
X102310000Y-83446252D02*
X102310000Y-82923748D01*
%TO.C,C6*%
X122480000Y-83446252D02*
X122480000Y-82923748D01*
X123900000Y-83446252D02*
X123900000Y-82923748D01*
%TO.C,D1*%
X75290000Y-87015000D02*
X75290000Y-89900000D01*
X77110000Y-87015000D02*
X75290000Y-87015000D01*
X77110000Y-89900000D02*
X77110000Y-87015000D01*
%TO.C,D2*%
X98700000Y-89900000D02*
X98700000Y-87015000D01*
X98700000Y-87015000D02*
X96880000Y-87015000D01*
X96880000Y-87015000D02*
X96880000Y-89900000D01*
%TO.C,D3*%
X118470000Y-87015000D02*
X118470000Y-89900000D01*
X120290000Y-87015000D02*
X118470000Y-87015000D01*
X120290000Y-89900000D02*
X120290000Y-87015000D01*
%TO.C,D4*%
X91805000Y-75290000D02*
X88920000Y-75290000D01*
X88920000Y-75290000D02*
X88920000Y-77110000D01*
X88920000Y-77110000D02*
X91805000Y-77110000D01*
%TO.C,J1*%
X108010000Y-77530000D02*
X108010000Y-74870000D01*
X97790000Y-77530000D02*
X108010000Y-77530000D01*
X97790000Y-74870000D02*
X108010000Y-74870000D01*
X97790000Y-77530000D02*
X97790000Y-74870000D01*
X96520000Y-77530000D02*
X95190000Y-77530000D01*
X95190000Y-77530000D02*
X95190000Y-76200000D01*
%TO.C,R1*%
X76910000Y-84716252D02*
X76910000Y-84193748D01*
X75490000Y-84716252D02*
X75490000Y-84193748D01*
%TO.C,R2*%
X97080000Y-84716252D02*
X97080000Y-84193748D01*
X98500000Y-84716252D02*
X98500000Y-84193748D01*
%TO.C,R3*%
X120090000Y-84716252D02*
X120090000Y-84193748D01*
X118670000Y-84716252D02*
X118670000Y-84193748D01*
%TO.C,R4*%
X86621252Y-76910000D02*
X86098748Y-76910000D01*
X86621252Y-75490000D02*
X86098748Y-75490000D01*
%TO.C,touch 1*%
X87630000Y-96520000D02*
X87630000Y-97790000D01*
X85090000Y-93980000D02*
X83820000Y-93980000D01*
X74930000Y-93980000D02*
X76200000Y-93980000D01*
X72390000Y-96520000D02*
X72390000Y-97790000D01*
X72390000Y-106680000D02*
X72390000Y-105410000D01*
X74930000Y-109220000D02*
X76200000Y-109220000D01*
X85090000Y-109220000D02*
X83820000Y-109220000D01*
X87630000Y-106680000D02*
X87630000Y-105410000D01*
X72390000Y-96520000D02*
G75*
G02*
X74930000Y-93980000I2540000J0D01*
G01*
X74930000Y-109220000D02*
G75*
G02*
X72390000Y-106680000I0J2540000D01*
G01*
X87630000Y-106680000D02*
G75*
G02*
X85090000Y-109220000I-2540000J0D01*
G01*
X85090000Y-93980000D02*
G75*
G02*
X87630000Y-96520000I0J-2540000D01*
G01*
X73660000Y-96520000D02*
G75*
G02*
X74930000Y-95250000I1270000J0D01*
G01*
X74930000Y-107950000D02*
G75*
G02*
X73660000Y-106680000I0J1270000D01*
G01*
X86360000Y-106680000D02*
G75*
G02*
X85090000Y-107950000I-1270000J0D01*
G01*
X85090000Y-95250000D02*
G75*
G02*
X86360000Y-96520000I0J-1270000D01*
G01*
%TO.C,touch 2*%
X109220000Y-96520000D02*
X109220000Y-97790000D01*
X106680000Y-93980000D02*
X105410000Y-93980000D01*
X96520000Y-93980000D02*
X97790000Y-93980000D01*
X93980000Y-96520000D02*
X93980000Y-97790000D01*
X93980000Y-106680000D02*
X93980000Y-105410000D01*
X96520000Y-109220000D02*
X97790000Y-109220000D01*
X106680000Y-109220000D02*
X105410000Y-109220000D01*
X109220000Y-106680000D02*
X109220000Y-105410000D01*
X93980000Y-96520000D02*
G75*
G02*
X96520000Y-93980000I2540000J0D01*
G01*
X96520000Y-109220000D02*
G75*
G02*
X93980000Y-106680000I0J2540000D01*
G01*
X109220000Y-106680000D02*
G75*
G02*
X106680000Y-109220000I-2540000J0D01*
G01*
X106680000Y-93980000D02*
G75*
G02*
X109220000Y-96520000I0J-2540000D01*
G01*
X95250000Y-96520000D02*
G75*
G02*
X96520000Y-95250000I1270000J0D01*
G01*
X96520000Y-107950000D02*
G75*
G02*
X95250000Y-106680000I0J1270000D01*
G01*
X107950000Y-106680000D02*
G75*
G02*
X106680000Y-107950000I-1270000J0D01*
G01*
X106680000Y-95250000D02*
G75*
G02*
X107950000Y-96520000I0J-1270000D01*
G01*
%TO.C,touch 3*%
X130810000Y-106680000D02*
X130810000Y-105410000D01*
X128270000Y-109220000D02*
X127000000Y-109220000D01*
X118110000Y-109220000D02*
X119380000Y-109220000D01*
X115570000Y-106680000D02*
X115570000Y-105410000D01*
X115570000Y-96520000D02*
X115570000Y-97790000D01*
X118110000Y-93980000D02*
X119380000Y-93980000D01*
X128270000Y-93980000D02*
X127000000Y-93980000D01*
X130810000Y-96520000D02*
X130810000Y-97790000D01*
X128270000Y-95250000D02*
G75*
G02*
X129540000Y-96520000I0J-1270000D01*
G01*
X129540000Y-106680000D02*
G75*
G02*
X128270000Y-107950000I-1270000J0D01*
G01*
X118110000Y-107950000D02*
G75*
G02*
X116840000Y-106680000I0J1270000D01*
G01*
X116840000Y-96520000D02*
G75*
G02*
X118110000Y-95250000I1270000J0D01*
G01*
X128270000Y-93980000D02*
G75*
G02*
X130810000Y-96520000I0J-2540000D01*
G01*
X130810000Y-106680000D02*
G75*
G02*
X128270000Y-109220000I-2540000J0D01*
G01*
X118110000Y-109220000D02*
G75*
G02*
X115570000Y-106680000I0J2540000D01*
G01*
X115570000Y-96520000D02*
G75*
G02*
X118110000Y-93980000I2540000J0D01*
G01*
%TO.C,U4*%
X81620000Y-89720000D02*
X81620000Y-87920000D01*
X78400000Y-87920000D02*
X78400000Y-90870000D01*
%TO.C,U5*%
X99990000Y-87920000D02*
X99990000Y-90870000D01*
X103210000Y-89720000D02*
X103210000Y-87920000D01*
%TO.C,U6*%
X124800000Y-89720000D02*
X124800000Y-87920000D01*
X121580000Y-87920000D02*
X121580000Y-90870000D01*
%TO.C,C1*%
D11*
X86082142Y-89066666D02*
X86129761Y-89114285D01*
X86177380Y-89257142D01*
X86177380Y-89352380D01*
X86129761Y-89495238D01*
X86034523Y-89590476D01*
X85939285Y-89638095D01*
X85748809Y-89685714D01*
X85605952Y-89685714D01*
X85415476Y-89638095D01*
X85320238Y-89590476D01*
X85225000Y-89495238D01*
X85177380Y-89352380D01*
X85177380Y-89257142D01*
X85225000Y-89114285D01*
X85272619Y-89066666D01*
X86177380Y-88114285D02*
X86177380Y-88685714D01*
X86177380Y-88400000D02*
X85177380Y-88400000D01*
X85320238Y-88495238D01*
X85415476Y-88590476D01*
X85463095Y-88685714D01*
%TO.C,C2*%
X107672142Y-89066666D02*
X107719761Y-89114285D01*
X107767380Y-89257142D01*
X107767380Y-89352380D01*
X107719761Y-89495238D01*
X107624523Y-89590476D01*
X107529285Y-89638095D01*
X107338809Y-89685714D01*
X107195952Y-89685714D01*
X107005476Y-89638095D01*
X106910238Y-89590476D01*
X106815000Y-89495238D01*
X106767380Y-89352380D01*
X106767380Y-89257142D01*
X106815000Y-89114285D01*
X106862619Y-89066666D01*
X106862619Y-88685714D02*
X106815000Y-88638095D01*
X106767380Y-88542857D01*
X106767380Y-88304761D01*
X106815000Y-88209523D01*
X106862619Y-88161904D01*
X106957857Y-88114285D01*
X107053095Y-88114285D01*
X107195952Y-88161904D01*
X107767380Y-88733333D01*
X107767380Y-88114285D01*
%TO.C,C3*%
X129262142Y-89066666D02*
X129309761Y-89114285D01*
X129357380Y-89257142D01*
X129357380Y-89352380D01*
X129309761Y-89495238D01*
X129214523Y-89590476D01*
X129119285Y-89638095D01*
X128928809Y-89685714D01*
X128785952Y-89685714D01*
X128595476Y-89638095D01*
X128500238Y-89590476D01*
X128405000Y-89495238D01*
X128357380Y-89352380D01*
X128357380Y-89257142D01*
X128405000Y-89114285D01*
X128452619Y-89066666D01*
X128357380Y-88733333D02*
X128357380Y-88114285D01*
X128738333Y-88447619D01*
X128738333Y-88304761D01*
X128785952Y-88209523D01*
X128833571Y-88161904D01*
X128928809Y-88114285D01*
X129166904Y-88114285D01*
X129262142Y-88161904D01*
X129309761Y-88209523D01*
X129357380Y-88304761D01*
X129357380Y-88590476D01*
X129309761Y-88685714D01*
X129262142Y-88733333D01*
%TO.C,C4*%
X82272142Y-83351666D02*
X82319761Y-83399285D01*
X82367380Y-83542142D01*
X82367380Y-83637380D01*
X82319761Y-83780238D01*
X82224523Y-83875476D01*
X82129285Y-83923095D01*
X81938809Y-83970714D01*
X81795952Y-83970714D01*
X81605476Y-83923095D01*
X81510238Y-83875476D01*
X81415000Y-83780238D01*
X81367380Y-83637380D01*
X81367380Y-83542142D01*
X81415000Y-83399285D01*
X81462619Y-83351666D01*
X81700714Y-82494523D02*
X82367380Y-82494523D01*
X81319761Y-82732619D02*
X82034047Y-82970714D01*
X82034047Y-82351666D01*
%TO.C,C5*%
X103862142Y-83351666D02*
X103909761Y-83399285D01*
X103957380Y-83542142D01*
X103957380Y-83637380D01*
X103909761Y-83780238D01*
X103814523Y-83875476D01*
X103719285Y-83923095D01*
X103528809Y-83970714D01*
X103385952Y-83970714D01*
X103195476Y-83923095D01*
X103100238Y-83875476D01*
X103005000Y-83780238D01*
X102957380Y-83637380D01*
X102957380Y-83542142D01*
X103005000Y-83399285D01*
X103052619Y-83351666D01*
X102957380Y-82446904D02*
X102957380Y-82923095D01*
X103433571Y-82970714D01*
X103385952Y-82923095D01*
X103338333Y-82827857D01*
X103338333Y-82589761D01*
X103385952Y-82494523D01*
X103433571Y-82446904D01*
X103528809Y-82399285D01*
X103766904Y-82399285D01*
X103862142Y-82446904D01*
X103909761Y-82494523D01*
X103957380Y-82589761D01*
X103957380Y-82827857D01*
X103909761Y-82923095D01*
X103862142Y-82970714D01*
%TO.C,C6*%
X125452142Y-83351666D02*
X125499761Y-83399285D01*
X125547380Y-83542142D01*
X125547380Y-83637380D01*
X125499761Y-83780238D01*
X125404523Y-83875476D01*
X125309285Y-83923095D01*
X125118809Y-83970714D01*
X124975952Y-83970714D01*
X124785476Y-83923095D01*
X124690238Y-83875476D01*
X124595000Y-83780238D01*
X124547380Y-83637380D01*
X124547380Y-83542142D01*
X124595000Y-83399285D01*
X124642619Y-83351666D01*
X124547380Y-82494523D02*
X124547380Y-82685000D01*
X124595000Y-82780238D01*
X124642619Y-82827857D01*
X124785476Y-82923095D01*
X124975952Y-82970714D01*
X125356904Y-82970714D01*
X125452142Y-82923095D01*
X125499761Y-82875476D01*
X125547380Y-82780238D01*
X125547380Y-82589761D01*
X125499761Y-82494523D01*
X125452142Y-82446904D01*
X125356904Y-82399285D01*
X125118809Y-82399285D01*
X125023571Y-82446904D01*
X124975952Y-82494523D01*
X124928333Y-82589761D01*
X124928333Y-82780238D01*
X124975952Y-82875476D01*
X125023571Y-82923095D01*
X125118809Y-82970714D01*
%TO.C,D1*%
X74747380Y-89638095D02*
X73747380Y-89638095D01*
X73747380Y-89400000D01*
X73795000Y-89257142D01*
X73890238Y-89161904D01*
X73985476Y-89114285D01*
X74175952Y-89066666D01*
X74318809Y-89066666D01*
X74509285Y-89114285D01*
X74604523Y-89161904D01*
X74699761Y-89257142D01*
X74747380Y-89400000D01*
X74747380Y-89638095D01*
X74747380Y-88114285D02*
X74747380Y-88685714D01*
X74747380Y-88400000D02*
X73747380Y-88400000D01*
X73890238Y-88495238D01*
X73985476Y-88590476D01*
X74033095Y-88685714D01*
%TO.C,D2*%
X96337380Y-89638095D02*
X95337380Y-89638095D01*
X95337380Y-89400000D01*
X95385000Y-89257142D01*
X95480238Y-89161904D01*
X95575476Y-89114285D01*
X95765952Y-89066666D01*
X95908809Y-89066666D01*
X96099285Y-89114285D01*
X96194523Y-89161904D01*
X96289761Y-89257142D01*
X96337380Y-89400000D01*
X96337380Y-89638095D01*
X95432619Y-88685714D02*
X95385000Y-88638095D01*
X95337380Y-88542857D01*
X95337380Y-88304761D01*
X95385000Y-88209523D01*
X95432619Y-88161904D01*
X95527857Y-88114285D01*
X95623095Y-88114285D01*
X95765952Y-88161904D01*
X96337380Y-88733333D01*
X96337380Y-88114285D01*
%TO.C,D3*%
X117927380Y-89638095D02*
X116927380Y-89638095D01*
X116927380Y-89400000D01*
X116975000Y-89257142D01*
X117070238Y-89161904D01*
X117165476Y-89114285D01*
X117355952Y-89066666D01*
X117498809Y-89066666D01*
X117689285Y-89114285D01*
X117784523Y-89161904D01*
X117879761Y-89257142D01*
X117927380Y-89400000D01*
X117927380Y-89638095D01*
X116927380Y-88733333D02*
X116927380Y-88114285D01*
X117308333Y-88447619D01*
X117308333Y-88304761D01*
X117355952Y-88209523D01*
X117403571Y-88161904D01*
X117498809Y-88114285D01*
X117736904Y-88114285D01*
X117832142Y-88161904D01*
X117879761Y-88209523D01*
X117927380Y-88304761D01*
X117927380Y-88590476D01*
X117879761Y-88685714D01*
X117832142Y-88733333D01*
%TO.C,D4*%
X90066904Y-78557380D02*
X90066904Y-77557380D01*
X90305000Y-77557380D01*
X90447857Y-77605000D01*
X90543095Y-77700238D01*
X90590714Y-77795476D01*
X90638333Y-77985952D01*
X90638333Y-78128809D01*
X90590714Y-78319285D01*
X90543095Y-78414523D01*
X90447857Y-78509761D01*
X90305000Y-78557380D01*
X90066904Y-78557380D01*
X91495476Y-77890714D02*
X91495476Y-78557380D01*
X91257380Y-77509761D02*
X91019285Y-78224047D01*
X91638333Y-78224047D01*
%TO.C,R1*%
X74747380Y-84621666D02*
X74271190Y-84955000D01*
X74747380Y-85193095D02*
X73747380Y-85193095D01*
X73747380Y-84812142D01*
X73795000Y-84716904D01*
X73842619Y-84669285D01*
X73937857Y-84621666D01*
X74080714Y-84621666D01*
X74175952Y-84669285D01*
X74223571Y-84716904D01*
X74271190Y-84812142D01*
X74271190Y-85193095D01*
X74747380Y-83669285D02*
X74747380Y-84240714D01*
X74747380Y-83955000D02*
X73747380Y-83955000D01*
X73890238Y-84050238D01*
X73985476Y-84145476D01*
X74033095Y-84240714D01*
%TO.C,R2*%
X96337380Y-84621666D02*
X95861190Y-84955000D01*
X96337380Y-85193095D02*
X95337380Y-85193095D01*
X95337380Y-84812142D01*
X95385000Y-84716904D01*
X95432619Y-84669285D01*
X95527857Y-84621666D01*
X95670714Y-84621666D01*
X95765952Y-84669285D01*
X95813571Y-84716904D01*
X95861190Y-84812142D01*
X95861190Y-85193095D01*
X95432619Y-84240714D02*
X95385000Y-84193095D01*
X95337380Y-84097857D01*
X95337380Y-83859761D01*
X95385000Y-83764523D01*
X95432619Y-83716904D01*
X95527857Y-83669285D01*
X95623095Y-83669285D01*
X95765952Y-83716904D01*
X96337380Y-84288333D01*
X96337380Y-83669285D01*
%TO.C,R3*%
X117927380Y-84621666D02*
X117451190Y-84955000D01*
X117927380Y-85193095D02*
X116927380Y-85193095D01*
X116927380Y-84812142D01*
X116975000Y-84716904D01*
X117022619Y-84669285D01*
X117117857Y-84621666D01*
X117260714Y-84621666D01*
X117355952Y-84669285D01*
X117403571Y-84716904D01*
X117451190Y-84812142D01*
X117451190Y-85193095D01*
X116927380Y-84288333D02*
X116927380Y-83669285D01*
X117308333Y-84002619D01*
X117308333Y-83859761D01*
X117355952Y-83764523D01*
X117403571Y-83716904D01*
X117498809Y-83669285D01*
X117736904Y-83669285D01*
X117832142Y-83716904D01*
X117879761Y-83764523D01*
X117927380Y-83859761D01*
X117927380Y-84145476D01*
X117879761Y-84240714D01*
X117832142Y-84288333D01*
%TO.C,R4*%
X86193333Y-78557380D02*
X85860000Y-78081190D01*
X85621904Y-78557380D02*
X85621904Y-77557380D01*
X86002857Y-77557380D01*
X86098095Y-77605000D01*
X86145714Y-77652619D01*
X86193333Y-77747857D01*
X86193333Y-77890714D01*
X86145714Y-77985952D01*
X86098095Y-78033571D01*
X86002857Y-78081190D01*
X85621904Y-78081190D01*
X87050476Y-77890714D02*
X87050476Y-78557380D01*
X86812380Y-77509761D02*
X86574285Y-78224047D01*
X87193333Y-78224047D01*
%TO.C,touch 1*%
X77176666Y-101385714D02*
X77557619Y-101385714D01*
X77319523Y-101052380D02*
X77319523Y-101909523D01*
X77367142Y-102004761D01*
X77462380Y-102052380D01*
X77557619Y-102052380D01*
X78033809Y-102052380D02*
X77938571Y-102004761D01*
X77890952Y-101957142D01*
X77843333Y-101861904D01*
X77843333Y-101576190D01*
X77890952Y-101480952D01*
X77938571Y-101433333D01*
X78033809Y-101385714D01*
X78176666Y-101385714D01*
X78271904Y-101433333D01*
X78319523Y-101480952D01*
X78367142Y-101576190D01*
X78367142Y-101861904D01*
X78319523Y-101957142D01*
X78271904Y-102004761D01*
X78176666Y-102052380D01*
X78033809Y-102052380D01*
X79224285Y-101385714D02*
X79224285Y-102052380D01*
X78795714Y-101385714D02*
X78795714Y-101909523D01*
X78843333Y-102004761D01*
X78938571Y-102052380D01*
X79081428Y-102052380D01*
X79176666Y-102004761D01*
X79224285Y-101957142D01*
X80129047Y-102004761D02*
X80033809Y-102052380D01*
X79843333Y-102052380D01*
X79748095Y-102004761D01*
X79700476Y-101957142D01*
X79652857Y-101861904D01*
X79652857Y-101576190D01*
X79700476Y-101480952D01*
X79748095Y-101433333D01*
X79843333Y-101385714D01*
X80033809Y-101385714D01*
X80129047Y-101433333D01*
X80557619Y-102052380D02*
X80557619Y-101052380D01*
X80986190Y-102052380D02*
X80986190Y-101528571D01*
X80938571Y-101433333D01*
X80843333Y-101385714D01*
X80700476Y-101385714D01*
X80605238Y-101433333D01*
X80557619Y-101480952D01*
X82748095Y-102052380D02*
X82176666Y-102052380D01*
X82462380Y-102052380D02*
X82462380Y-101052380D01*
X82367142Y-101195238D01*
X82271904Y-101290476D01*
X82176666Y-101338095D01*
%TO.C,touch 2*%
X98766666Y-101385714D02*
X99147619Y-101385714D01*
X98909523Y-101052380D02*
X98909523Y-101909523D01*
X98957142Y-102004761D01*
X99052380Y-102052380D01*
X99147619Y-102052380D01*
X99623809Y-102052380D02*
X99528571Y-102004761D01*
X99480952Y-101957142D01*
X99433333Y-101861904D01*
X99433333Y-101576190D01*
X99480952Y-101480952D01*
X99528571Y-101433333D01*
X99623809Y-101385714D01*
X99766666Y-101385714D01*
X99861904Y-101433333D01*
X99909523Y-101480952D01*
X99957142Y-101576190D01*
X99957142Y-101861904D01*
X99909523Y-101957142D01*
X99861904Y-102004761D01*
X99766666Y-102052380D01*
X99623809Y-102052380D01*
X100814285Y-101385714D02*
X100814285Y-102052380D01*
X100385714Y-101385714D02*
X100385714Y-101909523D01*
X100433333Y-102004761D01*
X100528571Y-102052380D01*
X100671428Y-102052380D01*
X100766666Y-102004761D01*
X100814285Y-101957142D01*
X101719047Y-102004761D02*
X101623809Y-102052380D01*
X101433333Y-102052380D01*
X101338095Y-102004761D01*
X101290476Y-101957142D01*
X101242857Y-101861904D01*
X101242857Y-101576190D01*
X101290476Y-101480952D01*
X101338095Y-101433333D01*
X101433333Y-101385714D01*
X101623809Y-101385714D01*
X101719047Y-101433333D01*
X102147619Y-102052380D02*
X102147619Y-101052380D01*
X102576190Y-102052380D02*
X102576190Y-101528571D01*
X102528571Y-101433333D01*
X102433333Y-101385714D01*
X102290476Y-101385714D01*
X102195238Y-101433333D01*
X102147619Y-101480952D01*
X103766666Y-101147619D02*
X103814285Y-101100000D01*
X103909523Y-101052380D01*
X104147619Y-101052380D01*
X104242857Y-101100000D01*
X104290476Y-101147619D01*
X104338095Y-101242857D01*
X104338095Y-101338095D01*
X104290476Y-101480952D01*
X103719047Y-102052380D01*
X104338095Y-102052380D01*
%TO.C,touch 3*%
X120356666Y-101385714D02*
X120737619Y-101385714D01*
X120499523Y-101052380D02*
X120499523Y-101909523D01*
X120547142Y-102004761D01*
X120642380Y-102052380D01*
X120737619Y-102052380D01*
X121213809Y-102052380D02*
X121118571Y-102004761D01*
X121070952Y-101957142D01*
X121023333Y-101861904D01*
X121023333Y-101576190D01*
X121070952Y-101480952D01*
X121118571Y-101433333D01*
X121213809Y-101385714D01*
X121356666Y-101385714D01*
X121451904Y-101433333D01*
X121499523Y-101480952D01*
X121547142Y-101576190D01*
X121547142Y-101861904D01*
X121499523Y-101957142D01*
X121451904Y-102004761D01*
X121356666Y-102052380D01*
X121213809Y-102052380D01*
X122404285Y-101385714D02*
X122404285Y-102052380D01*
X121975714Y-101385714D02*
X121975714Y-101909523D01*
X122023333Y-102004761D01*
X122118571Y-102052380D01*
X122261428Y-102052380D01*
X122356666Y-102004761D01*
X122404285Y-101957142D01*
X123309047Y-102004761D02*
X123213809Y-102052380D01*
X123023333Y-102052380D01*
X122928095Y-102004761D01*
X122880476Y-101957142D01*
X122832857Y-101861904D01*
X122832857Y-101576190D01*
X122880476Y-101480952D01*
X122928095Y-101433333D01*
X123023333Y-101385714D01*
X123213809Y-101385714D01*
X123309047Y-101433333D01*
X123737619Y-102052380D02*
X123737619Y-101052380D01*
X124166190Y-102052380D02*
X124166190Y-101528571D01*
X124118571Y-101433333D01*
X124023333Y-101385714D01*
X123880476Y-101385714D01*
X123785238Y-101433333D01*
X123737619Y-101480952D01*
X125309047Y-101052380D02*
X125928095Y-101052380D01*
X125594761Y-101433333D01*
X125737619Y-101433333D01*
X125832857Y-101480952D01*
X125880476Y-101528571D01*
X125928095Y-101623809D01*
X125928095Y-101861904D01*
X125880476Y-101957142D01*
X125832857Y-102004761D01*
X125737619Y-102052380D01*
X125451904Y-102052380D01*
X125356666Y-102004761D01*
X125309047Y-101957142D01*
%TO.C,U4*%
X79248095Y-91527380D02*
X79248095Y-92336904D01*
X79295714Y-92432142D01*
X79343333Y-92479761D01*
X79438571Y-92527380D01*
X79629047Y-92527380D01*
X79724285Y-92479761D01*
X79771904Y-92432142D01*
X79819523Y-92336904D01*
X79819523Y-91527380D01*
X80724285Y-91860714D02*
X80724285Y-92527380D01*
X80486190Y-91479761D02*
X80248095Y-92194047D01*
X80867142Y-92194047D01*
%TO.C,U5*%
X100838095Y-91447380D02*
X100838095Y-92256904D01*
X100885714Y-92352142D01*
X100933333Y-92399761D01*
X101028571Y-92447380D01*
X101219047Y-92447380D01*
X101314285Y-92399761D01*
X101361904Y-92352142D01*
X101409523Y-92256904D01*
X101409523Y-91447380D01*
X102361904Y-91447380D02*
X101885714Y-91447380D01*
X101838095Y-91923571D01*
X101885714Y-91875952D01*
X101980952Y-91828333D01*
X102219047Y-91828333D01*
X102314285Y-91875952D01*
X102361904Y-91923571D01*
X102409523Y-92018809D01*
X102409523Y-92256904D01*
X102361904Y-92352142D01*
X102314285Y-92399761D01*
X102219047Y-92447380D01*
X101980952Y-92447380D01*
X101885714Y-92399761D01*
X101838095Y-92352142D01*
%TO.C,U6*%
X122428095Y-91527380D02*
X122428095Y-92336904D01*
X122475714Y-92432142D01*
X122523333Y-92479761D01*
X122618571Y-92527380D01*
X122809047Y-92527380D01*
X122904285Y-92479761D01*
X122951904Y-92432142D01*
X122999523Y-92336904D01*
X122999523Y-91527380D01*
X123904285Y-91527380D02*
X123713809Y-91527380D01*
X123618571Y-91575000D01*
X123570952Y-91622619D01*
X123475714Y-91765476D01*
X123428095Y-91955952D01*
X123428095Y-92336904D01*
X123475714Y-92432142D01*
X123523333Y-92479761D01*
X123618571Y-92527380D01*
X123809047Y-92527380D01*
X123904285Y-92479761D01*
X123951904Y-92432142D01*
X123999523Y-92336904D01*
X123999523Y-92098809D01*
X123951904Y-92003571D01*
X123904285Y-91955952D01*
X123809047Y-91908333D01*
X123618571Y-91908333D01*
X123523333Y-91955952D01*
X123475714Y-92003571D01*
X123428095Y-92098809D01*
%TD*%
M02*
