%TF.GenerationSoftware,KiCad,Pcbnew,(5.1.6)-1*%
%TF.CreationDate,2021-04-07T17:59:20+02:00*%
%TF.ProjectId,touch_button_tester,746f7563-685f-4627-9574-746f6e5f7465,rev?*%
%TF.SameCoordinates,Original*%
%TF.FileFunction,Copper,L2,Bot*%
%TF.FilePolarity,Positive*%
%FSLAX46Y46*%
G04 Gerber Fmt 4.6, Leading zero omitted, Abs format (unit mm)*
G04 Created by KiCad (PCBNEW (5.1.6)-1) date 2021-04-07 17:59:20*
%MOMM*%
%LPD*%
G01*
G04 APERTURE LIST*
%TA.AperFunction,ComponentPad*%
%ADD10R,1.700000X1.700000*%
%TD*%
%TA.AperFunction,ComponentPad*%
%ADD11O,1.700000X1.700000*%
%TD*%
%TA.AperFunction,ViaPad*%
%ADD12C,0.800000*%
%TD*%
%TA.AperFunction,Conductor*%
%ADD13C,0.635000*%
%TD*%
%TA.AperFunction,Conductor*%
%ADD14C,0.254000*%
%TD*%
G04 APERTURE END LIST*
D10*
%TO.P,J1,1*%
%TO.N,+5V*%
X96520000Y-76200000D03*
D11*
%TO.P,J1,2*%
%TO.N,GND*%
X99060000Y-76200000D03*
%TO.P,J1,3*%
%TO.N,t1*%
X101600000Y-76200000D03*
%TO.P,J1,4*%
%TO.N,t2*%
X104140000Y-76200000D03*
%TO.P,J1,5*%
%TO.N,t3*%
X106680000Y-76200000D03*
%TD*%
%TO.N,Net-(C1-Pad1)*%
%TO.C,touch 1*%
%TA.AperFunction,Conductor*%
G36*
G01*
X84910000Y-108600000D02*
X75110000Y-108600000D01*
G75*
G02*
X73010000Y-106500000I0J2100000D01*
G01*
X73010000Y-96700000D01*
G75*
G02*
X75110000Y-94600000I2100000J0D01*
G01*
X84910000Y-94600000D01*
G75*
G02*
X87010000Y-96700000I0J-2100000D01*
G01*
X87010000Y-106500000D01*
G75*
G02*
X84910000Y-108600000I-2100000J0D01*
G01*
G37*
%TD.AperFunction*%
%TD*%
%TO.N,Net-(C2-Pad1)*%
%TO.C,touch 2*%
%TA.AperFunction,Conductor*%
G36*
G01*
X106500000Y-108600000D02*
X96700000Y-108600000D01*
G75*
G02*
X94600000Y-106500000I0J2100000D01*
G01*
X94600000Y-96700000D01*
G75*
G02*
X96700000Y-94600000I2100000J0D01*
G01*
X106500000Y-94600000D01*
G75*
G02*
X108600000Y-96700000I0J-2100000D01*
G01*
X108600000Y-106500000D01*
G75*
G02*
X106500000Y-108600000I-2100000J0D01*
G01*
G37*
%TD.AperFunction*%
%TD*%
%TO.N,Net-(C3-Pad1)*%
%TO.C,touch 3*%
%TA.AperFunction,Conductor*%
G36*
G01*
X128090000Y-108600000D02*
X118290000Y-108600000D01*
G75*
G02*
X116190000Y-106500000I0J2100000D01*
G01*
X116190000Y-96700000D01*
G75*
G02*
X118290000Y-94600000I2100000J0D01*
G01*
X128090000Y-94600000D01*
G75*
G02*
X130190000Y-96700000I0J-2100000D01*
G01*
X130190000Y-106500000D01*
G75*
G02*
X128090000Y-108600000I-2100000J0D01*
G01*
G37*
%TD.AperFunction*%
%TD*%
D12*
%TO.N,Net-(C1-Pad1)*%
X80010000Y-92964000D03*
%TO.N,Net-(C2-Pad1)*%
X101600000Y-92964000D03*
%TO.N,Net-(C3-Pad1)*%
X123190000Y-92964000D03*
%TO.N,+5V*%
X123190000Y-85598000D03*
X101600000Y-85598000D03*
X80010000Y-85598000D03*
%TO.N,t1*%
X77724000Y-90170000D03*
%TO.N,t2*%
X99314000Y-90170000D03*
%TO.N,t3*%
X120904000Y-90170000D03*
%TD*%
D13*
%TO.N,Net-(C1-Pad1)*%
X80010000Y-92964000D02*
X80010000Y-101600000D01*
%TO.N,Net-(C2-Pad1)*%
X101600000Y-92964000D02*
X101600000Y-101600000D01*
%TO.N,Net-(C3-Pad1)*%
X123190000Y-92964000D02*
X123190000Y-101600000D01*
%TO.N,t1*%
X77724000Y-78994000D02*
X77724000Y-90170000D01*
X78740000Y-77978000D02*
X77724000Y-78994000D01*
X99822000Y-77978000D02*
X78740000Y-77978000D01*
X101600000Y-76200000D02*
X99822000Y-77978000D01*
%TO.N,t2*%
X99314000Y-81026000D02*
X104140000Y-76200000D01*
X99314000Y-90170000D02*
X99314000Y-81026000D01*
%TO.N,t3*%
X106680000Y-76200000D02*
X108458000Y-77978000D01*
X119380000Y-77978000D02*
X120904000Y-79502000D01*
X108458000Y-77978000D02*
X119380000Y-77978000D01*
X120904000Y-90170000D02*
X120904000Y-79502000D01*
%TD*%
D14*
%TO.N,+5V*%
G36*
X131337197Y-74071047D02*
G01*
X131355662Y-74076622D01*
X131372694Y-74085678D01*
X131387643Y-74097870D01*
X131399938Y-74112732D01*
X131409111Y-74129696D01*
X131414817Y-74148129D01*
X131420001Y-74197455D01*
X131420001Y-91948000D01*
X123387459Y-91948000D01*
X123291939Y-91929000D01*
X123088061Y-91929000D01*
X122992541Y-91948000D01*
X101797459Y-91948000D01*
X101701939Y-91929000D01*
X101498061Y-91929000D01*
X101402541Y-91948000D01*
X80207459Y-91948000D01*
X80111939Y-91929000D01*
X79908061Y-91929000D01*
X79812541Y-91948000D01*
X71780000Y-91948000D01*
X71780000Y-90068061D01*
X76689000Y-90068061D01*
X76689000Y-90271939D01*
X76728774Y-90471898D01*
X76806795Y-90660256D01*
X76920063Y-90829774D01*
X77064226Y-90973937D01*
X77233744Y-91087205D01*
X77422102Y-91165226D01*
X77622061Y-91205000D01*
X77825939Y-91205000D01*
X78025898Y-91165226D01*
X78214256Y-91087205D01*
X78383774Y-90973937D01*
X78527937Y-90829774D01*
X78641205Y-90660256D01*
X78719226Y-90471898D01*
X78759000Y-90271939D01*
X78759000Y-90068061D01*
X78719226Y-89868102D01*
X78676500Y-89764953D01*
X78676500Y-79388538D01*
X79134539Y-78930500D01*
X99775215Y-78930500D01*
X99822000Y-78935108D01*
X99868785Y-78930500D01*
X100008723Y-78916717D01*
X100105647Y-78887315D01*
X98673565Y-80319397D01*
X98637223Y-80349222D01*
X98607399Y-80385563D01*
X98518194Y-80494260D01*
X98429749Y-80659731D01*
X98375283Y-80839278D01*
X98356892Y-81026000D01*
X98361501Y-81072795D01*
X98361500Y-89764953D01*
X98318774Y-89868102D01*
X98279000Y-90068061D01*
X98279000Y-90271939D01*
X98318774Y-90471898D01*
X98396795Y-90660256D01*
X98510063Y-90829774D01*
X98654226Y-90973937D01*
X98823744Y-91087205D01*
X99012102Y-91165226D01*
X99212061Y-91205000D01*
X99415939Y-91205000D01*
X99615898Y-91165226D01*
X99804256Y-91087205D01*
X99973774Y-90973937D01*
X100117937Y-90829774D01*
X100231205Y-90660256D01*
X100309226Y-90471898D01*
X100349000Y-90271939D01*
X100349000Y-90068061D01*
X100309226Y-89868102D01*
X100266500Y-89764953D01*
X100266500Y-81420538D01*
X104002038Y-77685000D01*
X104286260Y-77685000D01*
X104573158Y-77627932D01*
X104843411Y-77515990D01*
X105086632Y-77353475D01*
X105293475Y-77146632D01*
X105410000Y-76972240D01*
X105526525Y-77146632D01*
X105733368Y-77353475D01*
X105976589Y-77515990D01*
X106246842Y-77627932D01*
X106533740Y-77685000D01*
X106817962Y-77685000D01*
X107751397Y-78618436D01*
X107781222Y-78654778D01*
X107926259Y-78773806D01*
X107988881Y-78807278D01*
X108091730Y-78862252D01*
X108181504Y-78889485D01*
X108271277Y-78916717D01*
X108411215Y-78930500D01*
X108458000Y-78935108D01*
X108504785Y-78930500D01*
X118985462Y-78930500D01*
X119951501Y-79896539D01*
X119951500Y-89764953D01*
X119908774Y-89868102D01*
X119869000Y-90068061D01*
X119869000Y-90271939D01*
X119908774Y-90471898D01*
X119986795Y-90660256D01*
X120100063Y-90829774D01*
X120244226Y-90973937D01*
X120413744Y-91087205D01*
X120602102Y-91165226D01*
X120802061Y-91205000D01*
X121005939Y-91205000D01*
X121205898Y-91165226D01*
X121394256Y-91087205D01*
X121563774Y-90973937D01*
X121707937Y-90829774D01*
X121821205Y-90660256D01*
X121899226Y-90471898D01*
X121939000Y-90271939D01*
X121939000Y-90068061D01*
X121899226Y-89868102D01*
X121856500Y-89764953D01*
X121856500Y-79548784D01*
X121861108Y-79501999D01*
X121842717Y-79315277D01*
X121788252Y-79135731D01*
X121699806Y-78970259D01*
X121580778Y-78825222D01*
X121544431Y-78795393D01*
X120086607Y-77337569D01*
X120056778Y-77301222D01*
X119911741Y-77182194D01*
X119746269Y-77093748D01*
X119566723Y-77039283D01*
X119426785Y-77025500D01*
X119380000Y-77020892D01*
X119333215Y-77025500D01*
X108852539Y-77025500D01*
X108165000Y-76337962D01*
X108165000Y-76053740D01*
X108107932Y-75766842D01*
X107995990Y-75496589D01*
X107833475Y-75253368D01*
X107626632Y-75046525D01*
X107383411Y-74884010D01*
X107113158Y-74772068D01*
X106826260Y-74715000D01*
X106533740Y-74715000D01*
X106246842Y-74772068D01*
X105976589Y-74884010D01*
X105733368Y-75046525D01*
X105526525Y-75253368D01*
X105410000Y-75427760D01*
X105293475Y-75253368D01*
X105086632Y-75046525D01*
X104843411Y-74884010D01*
X104573158Y-74772068D01*
X104286260Y-74715000D01*
X103993740Y-74715000D01*
X103706842Y-74772068D01*
X103436589Y-74884010D01*
X103193368Y-75046525D01*
X102986525Y-75253368D01*
X102870000Y-75427760D01*
X102753475Y-75253368D01*
X102546632Y-75046525D01*
X102303411Y-74884010D01*
X102033158Y-74772068D01*
X101746260Y-74715000D01*
X101453740Y-74715000D01*
X101166842Y-74772068D01*
X100896589Y-74884010D01*
X100653368Y-75046525D01*
X100446525Y-75253368D01*
X100330000Y-75427760D01*
X100213475Y-75253368D01*
X100006632Y-75046525D01*
X99763411Y-74884010D01*
X99493158Y-74772068D01*
X99206260Y-74715000D01*
X98913740Y-74715000D01*
X98626842Y-74772068D01*
X98356589Y-74884010D01*
X98113368Y-75046525D01*
X97981513Y-75178380D01*
X97959502Y-75105820D01*
X97900537Y-74995506D01*
X97821185Y-74898815D01*
X97724494Y-74819463D01*
X97614180Y-74760498D01*
X97494482Y-74724188D01*
X97370000Y-74711928D01*
X96805750Y-74715000D01*
X96647000Y-74873750D01*
X96647000Y-76073000D01*
X96667000Y-76073000D01*
X96667000Y-76327000D01*
X96647000Y-76327000D01*
X96647000Y-76347000D01*
X96393000Y-76347000D01*
X96393000Y-76327000D01*
X95193750Y-76327000D01*
X95035000Y-76485750D01*
X95032061Y-77025500D01*
X78786785Y-77025500D01*
X78740000Y-77020892D01*
X78693215Y-77025500D01*
X78553277Y-77039283D01*
X78373731Y-77093748D01*
X78208259Y-77182194D01*
X78063222Y-77301222D01*
X78033399Y-77337562D01*
X77083569Y-78287393D01*
X77047222Y-78317222D01*
X76928194Y-78462259D01*
X76839748Y-78627732D01*
X76831544Y-78654778D01*
X76785283Y-78807278D01*
X76766892Y-78994000D01*
X76771500Y-79040785D01*
X76771501Y-89764951D01*
X76728774Y-89868102D01*
X76689000Y-90068061D01*
X71780000Y-90068061D01*
X71780000Y-75350000D01*
X95031928Y-75350000D01*
X95035000Y-75914250D01*
X95193750Y-76073000D01*
X96393000Y-76073000D01*
X96393000Y-74873750D01*
X96234250Y-74715000D01*
X95670000Y-74711928D01*
X95545518Y-74724188D01*
X95425820Y-74760498D01*
X95315506Y-74819463D01*
X95218815Y-74898815D01*
X95139463Y-74995506D01*
X95080498Y-75105820D01*
X95044188Y-75225518D01*
X95031928Y-75350000D01*
X71780000Y-75350000D01*
X71780000Y-74200277D01*
X71785047Y-74148803D01*
X71790622Y-74130338D01*
X71799678Y-74113306D01*
X71811870Y-74098357D01*
X71826732Y-74086062D01*
X71843696Y-74076889D01*
X71862129Y-74071183D01*
X71911446Y-74066000D01*
X131285723Y-74066000D01*
X131337197Y-74071047D01*
G37*
X131337197Y-74071047D02*
X131355662Y-74076622D01*
X131372694Y-74085678D01*
X131387643Y-74097870D01*
X131399938Y-74112732D01*
X131409111Y-74129696D01*
X131414817Y-74148129D01*
X131420001Y-74197455D01*
X131420001Y-91948000D01*
X123387459Y-91948000D01*
X123291939Y-91929000D01*
X123088061Y-91929000D01*
X122992541Y-91948000D01*
X101797459Y-91948000D01*
X101701939Y-91929000D01*
X101498061Y-91929000D01*
X101402541Y-91948000D01*
X80207459Y-91948000D01*
X80111939Y-91929000D01*
X79908061Y-91929000D01*
X79812541Y-91948000D01*
X71780000Y-91948000D01*
X71780000Y-90068061D01*
X76689000Y-90068061D01*
X76689000Y-90271939D01*
X76728774Y-90471898D01*
X76806795Y-90660256D01*
X76920063Y-90829774D01*
X77064226Y-90973937D01*
X77233744Y-91087205D01*
X77422102Y-91165226D01*
X77622061Y-91205000D01*
X77825939Y-91205000D01*
X78025898Y-91165226D01*
X78214256Y-91087205D01*
X78383774Y-90973937D01*
X78527937Y-90829774D01*
X78641205Y-90660256D01*
X78719226Y-90471898D01*
X78759000Y-90271939D01*
X78759000Y-90068061D01*
X78719226Y-89868102D01*
X78676500Y-89764953D01*
X78676500Y-79388538D01*
X79134539Y-78930500D01*
X99775215Y-78930500D01*
X99822000Y-78935108D01*
X99868785Y-78930500D01*
X100008723Y-78916717D01*
X100105647Y-78887315D01*
X98673565Y-80319397D01*
X98637223Y-80349222D01*
X98607399Y-80385563D01*
X98518194Y-80494260D01*
X98429749Y-80659731D01*
X98375283Y-80839278D01*
X98356892Y-81026000D01*
X98361501Y-81072795D01*
X98361500Y-89764953D01*
X98318774Y-89868102D01*
X98279000Y-90068061D01*
X98279000Y-90271939D01*
X98318774Y-90471898D01*
X98396795Y-90660256D01*
X98510063Y-90829774D01*
X98654226Y-90973937D01*
X98823744Y-91087205D01*
X99012102Y-91165226D01*
X99212061Y-91205000D01*
X99415939Y-91205000D01*
X99615898Y-91165226D01*
X99804256Y-91087205D01*
X99973774Y-90973937D01*
X100117937Y-90829774D01*
X100231205Y-90660256D01*
X100309226Y-90471898D01*
X100349000Y-90271939D01*
X100349000Y-90068061D01*
X100309226Y-89868102D01*
X100266500Y-89764953D01*
X100266500Y-81420538D01*
X104002038Y-77685000D01*
X104286260Y-77685000D01*
X104573158Y-77627932D01*
X104843411Y-77515990D01*
X105086632Y-77353475D01*
X105293475Y-77146632D01*
X105410000Y-76972240D01*
X105526525Y-77146632D01*
X105733368Y-77353475D01*
X105976589Y-77515990D01*
X106246842Y-77627932D01*
X106533740Y-77685000D01*
X106817962Y-77685000D01*
X107751397Y-78618436D01*
X107781222Y-78654778D01*
X107926259Y-78773806D01*
X107988881Y-78807278D01*
X108091730Y-78862252D01*
X108181504Y-78889485D01*
X108271277Y-78916717D01*
X108411215Y-78930500D01*
X108458000Y-78935108D01*
X108504785Y-78930500D01*
X118985462Y-78930500D01*
X119951501Y-79896539D01*
X119951500Y-89764953D01*
X119908774Y-89868102D01*
X119869000Y-90068061D01*
X119869000Y-90271939D01*
X119908774Y-90471898D01*
X119986795Y-90660256D01*
X120100063Y-90829774D01*
X120244226Y-90973937D01*
X120413744Y-91087205D01*
X120602102Y-91165226D01*
X120802061Y-91205000D01*
X121005939Y-91205000D01*
X121205898Y-91165226D01*
X121394256Y-91087205D01*
X121563774Y-90973937D01*
X121707937Y-90829774D01*
X121821205Y-90660256D01*
X121899226Y-90471898D01*
X121939000Y-90271939D01*
X121939000Y-90068061D01*
X121899226Y-89868102D01*
X121856500Y-89764953D01*
X121856500Y-79548784D01*
X121861108Y-79501999D01*
X121842717Y-79315277D01*
X121788252Y-79135731D01*
X121699806Y-78970259D01*
X121580778Y-78825222D01*
X121544431Y-78795393D01*
X120086607Y-77337569D01*
X120056778Y-77301222D01*
X119911741Y-77182194D01*
X119746269Y-77093748D01*
X119566723Y-77039283D01*
X119426785Y-77025500D01*
X119380000Y-77020892D01*
X119333215Y-77025500D01*
X108852539Y-77025500D01*
X108165000Y-76337962D01*
X108165000Y-76053740D01*
X108107932Y-75766842D01*
X107995990Y-75496589D01*
X107833475Y-75253368D01*
X107626632Y-75046525D01*
X107383411Y-74884010D01*
X107113158Y-74772068D01*
X106826260Y-74715000D01*
X106533740Y-74715000D01*
X106246842Y-74772068D01*
X105976589Y-74884010D01*
X105733368Y-75046525D01*
X105526525Y-75253368D01*
X105410000Y-75427760D01*
X105293475Y-75253368D01*
X105086632Y-75046525D01*
X104843411Y-74884010D01*
X104573158Y-74772068D01*
X104286260Y-74715000D01*
X103993740Y-74715000D01*
X103706842Y-74772068D01*
X103436589Y-74884010D01*
X103193368Y-75046525D01*
X102986525Y-75253368D01*
X102870000Y-75427760D01*
X102753475Y-75253368D01*
X102546632Y-75046525D01*
X102303411Y-74884010D01*
X102033158Y-74772068D01*
X101746260Y-74715000D01*
X101453740Y-74715000D01*
X101166842Y-74772068D01*
X100896589Y-74884010D01*
X100653368Y-75046525D01*
X100446525Y-75253368D01*
X100330000Y-75427760D01*
X100213475Y-75253368D01*
X100006632Y-75046525D01*
X99763411Y-74884010D01*
X99493158Y-74772068D01*
X99206260Y-74715000D01*
X98913740Y-74715000D01*
X98626842Y-74772068D01*
X98356589Y-74884010D01*
X98113368Y-75046525D01*
X97981513Y-75178380D01*
X97959502Y-75105820D01*
X97900537Y-74995506D01*
X97821185Y-74898815D01*
X97724494Y-74819463D01*
X97614180Y-74760498D01*
X97494482Y-74724188D01*
X97370000Y-74711928D01*
X96805750Y-74715000D01*
X96647000Y-74873750D01*
X96647000Y-76073000D01*
X96667000Y-76073000D01*
X96667000Y-76327000D01*
X96647000Y-76327000D01*
X96647000Y-76347000D01*
X96393000Y-76347000D01*
X96393000Y-76327000D01*
X95193750Y-76327000D01*
X95035000Y-76485750D01*
X95032061Y-77025500D01*
X78786785Y-77025500D01*
X78740000Y-77020892D01*
X78693215Y-77025500D01*
X78553277Y-77039283D01*
X78373731Y-77093748D01*
X78208259Y-77182194D01*
X78063222Y-77301222D01*
X78033399Y-77337562D01*
X77083569Y-78287393D01*
X77047222Y-78317222D01*
X76928194Y-78462259D01*
X76839748Y-78627732D01*
X76831544Y-78654778D01*
X76785283Y-78807278D01*
X76766892Y-78994000D01*
X76771500Y-79040785D01*
X76771501Y-89764951D01*
X76728774Y-89868102D01*
X76689000Y-90068061D01*
X71780000Y-90068061D01*
X71780000Y-75350000D01*
X95031928Y-75350000D01*
X95035000Y-75914250D01*
X95193750Y-76073000D01*
X96393000Y-76073000D01*
X96393000Y-74873750D01*
X96234250Y-74715000D01*
X95670000Y-74711928D01*
X95545518Y-74724188D01*
X95425820Y-74760498D01*
X95315506Y-74819463D01*
X95218815Y-74898815D01*
X95139463Y-74995506D01*
X95080498Y-75105820D01*
X95044188Y-75225518D01*
X95031928Y-75350000D01*
X71780000Y-75350000D01*
X71780000Y-74200277D01*
X71785047Y-74148803D01*
X71790622Y-74130338D01*
X71799678Y-74113306D01*
X71811870Y-74098357D01*
X71826732Y-74086062D01*
X71843696Y-74076889D01*
X71862129Y-74071183D01*
X71911446Y-74066000D01*
X131285723Y-74066000D01*
X131337197Y-74071047D01*
%TD*%
M02*
