%TF.GenerationSoftware,KiCad,Pcbnew,(5.1.6)-1*%
%TF.CreationDate,2021-04-07T17:59:20+02:00*%
%TF.ProjectId,touch_button_tester,746f7563-685f-4627-9574-746f6e5f7465,rev?*%
%TF.SameCoordinates,Original*%
%TF.FileFunction,Soldermask,Top*%
%TF.FilePolarity,Negative*%
%FSLAX46Y46*%
G04 Gerber Fmt 4.6, Leading zero omitted, Abs format (unit mm)*
G04 Created by KiCad (PCBNEW (5.1.6)-1) date 2021-04-07 17:59:20*
%MOMM*%
%LPD*%
G01*
G04 APERTURE LIST*
%ADD10R,1.800000X1.800000*%
%ADD11O,1.800000X1.800000*%
%ADD12R,0.750000X1.660000*%
G04 APERTURE END LIST*
%TO.C,C1*%
G36*
G01*
X84298262Y-88500000D02*
X83341738Y-88500000D01*
G75*
G02*
X83070000Y-88228262I0J271738D01*
G01*
X83070000Y-87521738D01*
G75*
G02*
X83341738Y-87250000I271738J0D01*
G01*
X84298262Y-87250000D01*
G75*
G02*
X84570000Y-87521738I0J-271738D01*
G01*
X84570000Y-88228262D01*
G75*
G02*
X84298262Y-88500000I-271738J0D01*
G01*
G37*
G36*
G01*
X84298262Y-90550000D02*
X83341738Y-90550000D01*
G75*
G02*
X83070000Y-90278262I0J271738D01*
G01*
X83070000Y-89571738D01*
G75*
G02*
X83341738Y-89300000I271738J0D01*
G01*
X84298262Y-89300000D01*
G75*
G02*
X84570000Y-89571738I0J-271738D01*
G01*
X84570000Y-90278262D01*
G75*
G02*
X84298262Y-90550000I-271738J0D01*
G01*
G37*
%TD*%
%TO.C,C2*%
G36*
G01*
X105888262Y-88500000D02*
X104931738Y-88500000D01*
G75*
G02*
X104660000Y-88228262I0J271738D01*
G01*
X104660000Y-87521738D01*
G75*
G02*
X104931738Y-87250000I271738J0D01*
G01*
X105888262Y-87250000D01*
G75*
G02*
X106160000Y-87521738I0J-271738D01*
G01*
X106160000Y-88228262D01*
G75*
G02*
X105888262Y-88500000I-271738J0D01*
G01*
G37*
G36*
G01*
X105888262Y-90550000D02*
X104931738Y-90550000D01*
G75*
G02*
X104660000Y-90278262I0J271738D01*
G01*
X104660000Y-89571738D01*
G75*
G02*
X104931738Y-89300000I271738J0D01*
G01*
X105888262Y-89300000D01*
G75*
G02*
X106160000Y-89571738I0J-271738D01*
G01*
X106160000Y-90278262D01*
G75*
G02*
X105888262Y-90550000I-271738J0D01*
G01*
G37*
%TD*%
%TO.C,C3*%
G36*
G01*
X127478262Y-88500000D02*
X126521738Y-88500000D01*
G75*
G02*
X126250000Y-88228262I0J271738D01*
G01*
X126250000Y-87521738D01*
G75*
G02*
X126521738Y-87250000I271738J0D01*
G01*
X127478262Y-87250000D01*
G75*
G02*
X127750000Y-87521738I0J-271738D01*
G01*
X127750000Y-88228262D01*
G75*
G02*
X127478262Y-88500000I-271738J0D01*
G01*
G37*
G36*
G01*
X127478262Y-90550000D02*
X126521738Y-90550000D01*
G75*
G02*
X126250000Y-90278262I0J271738D01*
G01*
X126250000Y-89571738D01*
G75*
G02*
X126521738Y-89300000I271738J0D01*
G01*
X127478262Y-89300000D01*
G75*
G02*
X127750000Y-89571738I0J-271738D01*
G01*
X127750000Y-90278262D01*
G75*
G02*
X127478262Y-90550000I-271738J0D01*
G01*
G37*
%TD*%
%TO.C,C4*%
G36*
G01*
X80488262Y-84835000D02*
X79531738Y-84835000D01*
G75*
G02*
X79260000Y-84563262I0J271738D01*
G01*
X79260000Y-83856738D01*
G75*
G02*
X79531738Y-83585000I271738J0D01*
G01*
X80488262Y-83585000D01*
G75*
G02*
X80760000Y-83856738I0J-271738D01*
G01*
X80760000Y-84563262D01*
G75*
G02*
X80488262Y-84835000I-271738J0D01*
G01*
G37*
G36*
G01*
X80488262Y-82785000D02*
X79531738Y-82785000D01*
G75*
G02*
X79260000Y-82513262I0J271738D01*
G01*
X79260000Y-81806738D01*
G75*
G02*
X79531738Y-81535000I271738J0D01*
G01*
X80488262Y-81535000D01*
G75*
G02*
X80760000Y-81806738I0J-271738D01*
G01*
X80760000Y-82513262D01*
G75*
G02*
X80488262Y-82785000I-271738J0D01*
G01*
G37*
%TD*%
%TO.C,C5*%
G36*
G01*
X102078262Y-84835000D02*
X101121738Y-84835000D01*
G75*
G02*
X100850000Y-84563262I0J271738D01*
G01*
X100850000Y-83856738D01*
G75*
G02*
X101121738Y-83585000I271738J0D01*
G01*
X102078262Y-83585000D01*
G75*
G02*
X102350000Y-83856738I0J-271738D01*
G01*
X102350000Y-84563262D01*
G75*
G02*
X102078262Y-84835000I-271738J0D01*
G01*
G37*
G36*
G01*
X102078262Y-82785000D02*
X101121738Y-82785000D01*
G75*
G02*
X100850000Y-82513262I0J271738D01*
G01*
X100850000Y-81806738D01*
G75*
G02*
X101121738Y-81535000I271738J0D01*
G01*
X102078262Y-81535000D01*
G75*
G02*
X102350000Y-81806738I0J-271738D01*
G01*
X102350000Y-82513262D01*
G75*
G02*
X102078262Y-82785000I-271738J0D01*
G01*
G37*
%TD*%
%TO.C,C6*%
G36*
G01*
X123668262Y-84835000D02*
X122711738Y-84835000D01*
G75*
G02*
X122440000Y-84563262I0J271738D01*
G01*
X122440000Y-83856738D01*
G75*
G02*
X122711738Y-83585000I271738J0D01*
G01*
X123668262Y-83585000D01*
G75*
G02*
X123940000Y-83856738I0J-271738D01*
G01*
X123940000Y-84563262D01*
G75*
G02*
X123668262Y-84835000I-271738J0D01*
G01*
G37*
G36*
G01*
X123668262Y-82785000D02*
X122711738Y-82785000D01*
G75*
G02*
X122440000Y-82513262I0J271738D01*
G01*
X122440000Y-81806738D01*
G75*
G02*
X122711738Y-81535000I271738J0D01*
G01*
X123668262Y-81535000D01*
G75*
G02*
X123940000Y-81806738I0J-271738D01*
G01*
X123940000Y-82513262D01*
G75*
G02*
X123668262Y-82785000I-271738J0D01*
G01*
G37*
%TD*%
%TO.C,D1*%
G36*
G01*
X75769231Y-89150000D02*
X76630769Y-89150000D01*
G75*
G02*
X76900000Y-89419231I0J-269231D01*
G01*
X76900000Y-90305769D01*
G75*
G02*
X76630769Y-90575000I-269231J0D01*
G01*
X75769231Y-90575000D01*
G75*
G02*
X75500000Y-90305769I0J269231D01*
G01*
X75500000Y-89419231D01*
G75*
G02*
X75769231Y-89150000I269231J0D01*
G01*
G37*
G36*
G01*
X75769231Y-87225000D02*
X76630769Y-87225000D01*
G75*
G02*
X76900000Y-87494231I0J-269231D01*
G01*
X76900000Y-88380769D01*
G75*
G02*
X76630769Y-88650000I-269231J0D01*
G01*
X75769231Y-88650000D01*
G75*
G02*
X75500000Y-88380769I0J269231D01*
G01*
X75500000Y-87494231D01*
G75*
G02*
X75769231Y-87225000I269231J0D01*
G01*
G37*
%TD*%
%TO.C,D2*%
G36*
G01*
X97359231Y-87225000D02*
X98220769Y-87225000D01*
G75*
G02*
X98490000Y-87494231I0J-269231D01*
G01*
X98490000Y-88380769D01*
G75*
G02*
X98220769Y-88650000I-269231J0D01*
G01*
X97359231Y-88650000D01*
G75*
G02*
X97090000Y-88380769I0J269231D01*
G01*
X97090000Y-87494231D01*
G75*
G02*
X97359231Y-87225000I269231J0D01*
G01*
G37*
G36*
G01*
X97359231Y-89150000D02*
X98220769Y-89150000D01*
G75*
G02*
X98490000Y-89419231I0J-269231D01*
G01*
X98490000Y-90305769D01*
G75*
G02*
X98220769Y-90575000I-269231J0D01*
G01*
X97359231Y-90575000D01*
G75*
G02*
X97090000Y-90305769I0J269231D01*
G01*
X97090000Y-89419231D01*
G75*
G02*
X97359231Y-89150000I269231J0D01*
G01*
G37*
%TD*%
%TO.C,D3*%
G36*
G01*
X118949231Y-89150000D02*
X119810769Y-89150000D01*
G75*
G02*
X120080000Y-89419231I0J-269231D01*
G01*
X120080000Y-90305769D01*
G75*
G02*
X119810769Y-90575000I-269231J0D01*
G01*
X118949231Y-90575000D01*
G75*
G02*
X118680000Y-90305769I0J269231D01*
G01*
X118680000Y-89419231D01*
G75*
G02*
X118949231Y-89150000I269231J0D01*
G01*
G37*
G36*
G01*
X118949231Y-87225000D02*
X119810769Y-87225000D01*
G75*
G02*
X120080000Y-87494231I0J-269231D01*
G01*
X120080000Y-88380769D01*
G75*
G02*
X119810769Y-88650000I-269231J0D01*
G01*
X118949231Y-88650000D01*
G75*
G02*
X118680000Y-88380769I0J269231D01*
G01*
X118680000Y-87494231D01*
G75*
G02*
X118949231Y-87225000I269231J0D01*
G01*
G37*
%TD*%
%TO.C,D4*%
G36*
G01*
X89130000Y-76630769D02*
X89130000Y-75769231D01*
G75*
G02*
X89399231Y-75500000I269231J0D01*
G01*
X90285769Y-75500000D01*
G75*
G02*
X90555000Y-75769231I0J-269231D01*
G01*
X90555000Y-76630769D01*
G75*
G02*
X90285769Y-76900000I-269231J0D01*
G01*
X89399231Y-76900000D01*
G75*
G02*
X89130000Y-76630769I0J269231D01*
G01*
G37*
G36*
G01*
X91055000Y-76630769D02*
X91055000Y-75769231D01*
G75*
G02*
X91324231Y-75500000I269231J0D01*
G01*
X92210769Y-75500000D01*
G75*
G02*
X92480000Y-75769231I0J-269231D01*
G01*
X92480000Y-76630769D01*
G75*
G02*
X92210769Y-76900000I-269231J0D01*
G01*
X91324231Y-76900000D01*
G75*
G02*
X91055000Y-76630769I0J269231D01*
G01*
G37*
%TD*%
D10*
%TO.C,J1*%
X96520000Y-76200000D03*
D11*
X99060000Y-76200000D03*
X101600000Y-76200000D03*
X104140000Y-76200000D03*
X106680000Y-76200000D03*
%TD*%
%TO.C,R1*%
G36*
G01*
X76678262Y-84055000D02*
X75721738Y-84055000D01*
G75*
G02*
X75450000Y-83783262I0J271738D01*
G01*
X75450000Y-83076738D01*
G75*
G02*
X75721738Y-82805000I271738J0D01*
G01*
X76678262Y-82805000D01*
G75*
G02*
X76950000Y-83076738I0J-271738D01*
G01*
X76950000Y-83783262D01*
G75*
G02*
X76678262Y-84055000I-271738J0D01*
G01*
G37*
G36*
G01*
X76678262Y-86105000D02*
X75721738Y-86105000D01*
G75*
G02*
X75450000Y-85833262I0J271738D01*
G01*
X75450000Y-85126738D01*
G75*
G02*
X75721738Y-84855000I271738J0D01*
G01*
X76678262Y-84855000D01*
G75*
G02*
X76950000Y-85126738I0J-271738D01*
G01*
X76950000Y-85833262D01*
G75*
G02*
X76678262Y-86105000I-271738J0D01*
G01*
G37*
%TD*%
%TO.C,R2*%
G36*
G01*
X98268262Y-86105000D02*
X97311738Y-86105000D01*
G75*
G02*
X97040000Y-85833262I0J271738D01*
G01*
X97040000Y-85126738D01*
G75*
G02*
X97311738Y-84855000I271738J0D01*
G01*
X98268262Y-84855000D01*
G75*
G02*
X98540000Y-85126738I0J-271738D01*
G01*
X98540000Y-85833262D01*
G75*
G02*
X98268262Y-86105000I-271738J0D01*
G01*
G37*
G36*
G01*
X98268262Y-84055000D02*
X97311738Y-84055000D01*
G75*
G02*
X97040000Y-83783262I0J271738D01*
G01*
X97040000Y-83076738D01*
G75*
G02*
X97311738Y-82805000I271738J0D01*
G01*
X98268262Y-82805000D01*
G75*
G02*
X98540000Y-83076738I0J-271738D01*
G01*
X98540000Y-83783262D01*
G75*
G02*
X98268262Y-84055000I-271738J0D01*
G01*
G37*
%TD*%
%TO.C,R3*%
G36*
G01*
X119858262Y-84055000D02*
X118901738Y-84055000D01*
G75*
G02*
X118630000Y-83783262I0J271738D01*
G01*
X118630000Y-83076738D01*
G75*
G02*
X118901738Y-82805000I271738J0D01*
G01*
X119858262Y-82805000D01*
G75*
G02*
X120130000Y-83076738I0J-271738D01*
G01*
X120130000Y-83783262D01*
G75*
G02*
X119858262Y-84055000I-271738J0D01*
G01*
G37*
G36*
G01*
X119858262Y-86105000D02*
X118901738Y-86105000D01*
G75*
G02*
X118630000Y-85833262I0J271738D01*
G01*
X118630000Y-85126738D01*
G75*
G02*
X118901738Y-84855000I271738J0D01*
G01*
X119858262Y-84855000D01*
G75*
G02*
X120130000Y-85126738I0J-271738D01*
G01*
X120130000Y-85833262D01*
G75*
G02*
X119858262Y-86105000I-271738J0D01*
G01*
G37*
%TD*%
%TO.C,R4*%
G36*
G01*
X88010000Y-75721738D02*
X88010000Y-76678262D01*
G75*
G02*
X87738262Y-76950000I-271738J0D01*
G01*
X87031738Y-76950000D01*
G75*
G02*
X86760000Y-76678262I0J271738D01*
G01*
X86760000Y-75721738D01*
G75*
G02*
X87031738Y-75450000I271738J0D01*
G01*
X87738262Y-75450000D01*
G75*
G02*
X88010000Y-75721738I0J-271738D01*
G01*
G37*
G36*
G01*
X85960000Y-75721738D02*
X85960000Y-76678262D01*
G75*
G02*
X85688262Y-76950000I-271738J0D01*
G01*
X84981738Y-76950000D01*
G75*
G02*
X84710000Y-76678262I0J271738D01*
G01*
X84710000Y-75721738D01*
G75*
G02*
X84981738Y-75450000I271738J0D01*
G01*
X85688262Y-75450000D01*
G75*
G02*
X85960000Y-75721738I0J-271738D01*
G01*
G37*
%TD*%
D12*
%TO.C,U4*%
X79060000Y-90170000D03*
X80010000Y-90170000D03*
X80960000Y-90170000D03*
X80960000Y-87470000D03*
X79060000Y-87470000D03*
X80010000Y-87470000D03*
%TD*%
%TO.C,U5*%
X101600000Y-87470000D03*
X100650000Y-87470000D03*
X102550000Y-87470000D03*
X102550000Y-90170000D03*
X101600000Y-90170000D03*
X100650000Y-90170000D03*
%TD*%
%TO.C,U6*%
X122240000Y-90170000D03*
X123190000Y-90170000D03*
X124140000Y-90170000D03*
X124140000Y-87470000D03*
X122240000Y-87470000D03*
X123190000Y-87470000D03*
%TD*%
M02*
