%TF.GenerationSoftware,KiCad,Pcbnew,(5.1.6)-1*%
%TF.CreationDate,2021-04-07T17:59:20+02:00*%
%TF.ProjectId,touch_button_tester,746f7563-685f-4627-9574-746f6e5f7465,rev?*%
%TF.SameCoordinates,Original*%
%TF.FileFunction,Paste,Top*%
%TF.FilePolarity,Positive*%
%FSLAX46Y46*%
G04 Gerber Fmt 4.6, Leading zero omitted, Abs format (unit mm)*
G04 Created by KiCad (PCBNEW (5.1.6)-1) date 2021-04-07 17:59:20*
%MOMM*%
%LPD*%
G01*
G04 APERTURE LIST*
%ADD10R,0.650000X1.560000*%
G04 APERTURE END LIST*
%TO.C,C1*%
G36*
G01*
X84270001Y-88450000D02*
X83369999Y-88450000D01*
G75*
G02*
X83120000Y-88200001I0J249999D01*
G01*
X83120000Y-87549999D01*
G75*
G02*
X83369999Y-87300000I249999J0D01*
G01*
X84270001Y-87300000D01*
G75*
G02*
X84520000Y-87549999I0J-249999D01*
G01*
X84520000Y-88200001D01*
G75*
G02*
X84270001Y-88450000I-249999J0D01*
G01*
G37*
G36*
G01*
X84270001Y-90500000D02*
X83369999Y-90500000D01*
G75*
G02*
X83120000Y-90250001I0J249999D01*
G01*
X83120000Y-89599999D01*
G75*
G02*
X83369999Y-89350000I249999J0D01*
G01*
X84270001Y-89350000D01*
G75*
G02*
X84520000Y-89599999I0J-249999D01*
G01*
X84520000Y-90250001D01*
G75*
G02*
X84270001Y-90500000I-249999J0D01*
G01*
G37*
%TD*%
%TO.C,C2*%
G36*
G01*
X105860001Y-88450000D02*
X104959999Y-88450000D01*
G75*
G02*
X104710000Y-88200001I0J249999D01*
G01*
X104710000Y-87549999D01*
G75*
G02*
X104959999Y-87300000I249999J0D01*
G01*
X105860001Y-87300000D01*
G75*
G02*
X106110000Y-87549999I0J-249999D01*
G01*
X106110000Y-88200001D01*
G75*
G02*
X105860001Y-88450000I-249999J0D01*
G01*
G37*
G36*
G01*
X105860001Y-90500000D02*
X104959999Y-90500000D01*
G75*
G02*
X104710000Y-90250001I0J249999D01*
G01*
X104710000Y-89599999D01*
G75*
G02*
X104959999Y-89350000I249999J0D01*
G01*
X105860001Y-89350000D01*
G75*
G02*
X106110000Y-89599999I0J-249999D01*
G01*
X106110000Y-90250001D01*
G75*
G02*
X105860001Y-90500000I-249999J0D01*
G01*
G37*
%TD*%
%TO.C,C3*%
G36*
G01*
X127450001Y-88450000D02*
X126549999Y-88450000D01*
G75*
G02*
X126300000Y-88200001I0J249999D01*
G01*
X126300000Y-87549999D01*
G75*
G02*
X126549999Y-87300000I249999J0D01*
G01*
X127450001Y-87300000D01*
G75*
G02*
X127700000Y-87549999I0J-249999D01*
G01*
X127700000Y-88200001D01*
G75*
G02*
X127450001Y-88450000I-249999J0D01*
G01*
G37*
G36*
G01*
X127450001Y-90500000D02*
X126549999Y-90500000D01*
G75*
G02*
X126300000Y-90250001I0J249999D01*
G01*
X126300000Y-89599999D01*
G75*
G02*
X126549999Y-89350000I249999J0D01*
G01*
X127450001Y-89350000D01*
G75*
G02*
X127700000Y-89599999I0J-249999D01*
G01*
X127700000Y-90250001D01*
G75*
G02*
X127450001Y-90500000I-249999J0D01*
G01*
G37*
%TD*%
%TO.C,C4*%
G36*
G01*
X80460001Y-84785000D02*
X79559999Y-84785000D01*
G75*
G02*
X79310000Y-84535001I0J249999D01*
G01*
X79310000Y-83884999D01*
G75*
G02*
X79559999Y-83635000I249999J0D01*
G01*
X80460001Y-83635000D01*
G75*
G02*
X80710000Y-83884999I0J-249999D01*
G01*
X80710000Y-84535001D01*
G75*
G02*
X80460001Y-84785000I-249999J0D01*
G01*
G37*
G36*
G01*
X80460001Y-82735000D02*
X79559999Y-82735000D01*
G75*
G02*
X79310000Y-82485001I0J249999D01*
G01*
X79310000Y-81834999D01*
G75*
G02*
X79559999Y-81585000I249999J0D01*
G01*
X80460001Y-81585000D01*
G75*
G02*
X80710000Y-81834999I0J-249999D01*
G01*
X80710000Y-82485001D01*
G75*
G02*
X80460001Y-82735000I-249999J0D01*
G01*
G37*
%TD*%
%TO.C,C5*%
G36*
G01*
X102050001Y-84785000D02*
X101149999Y-84785000D01*
G75*
G02*
X100900000Y-84535001I0J249999D01*
G01*
X100900000Y-83884999D01*
G75*
G02*
X101149999Y-83635000I249999J0D01*
G01*
X102050001Y-83635000D01*
G75*
G02*
X102300000Y-83884999I0J-249999D01*
G01*
X102300000Y-84535001D01*
G75*
G02*
X102050001Y-84785000I-249999J0D01*
G01*
G37*
G36*
G01*
X102050001Y-82735000D02*
X101149999Y-82735000D01*
G75*
G02*
X100900000Y-82485001I0J249999D01*
G01*
X100900000Y-81834999D01*
G75*
G02*
X101149999Y-81585000I249999J0D01*
G01*
X102050001Y-81585000D01*
G75*
G02*
X102300000Y-81834999I0J-249999D01*
G01*
X102300000Y-82485001D01*
G75*
G02*
X102050001Y-82735000I-249999J0D01*
G01*
G37*
%TD*%
%TO.C,C6*%
G36*
G01*
X123640001Y-84785000D02*
X122739999Y-84785000D01*
G75*
G02*
X122490000Y-84535001I0J249999D01*
G01*
X122490000Y-83884999D01*
G75*
G02*
X122739999Y-83635000I249999J0D01*
G01*
X123640001Y-83635000D01*
G75*
G02*
X123890000Y-83884999I0J-249999D01*
G01*
X123890000Y-84535001D01*
G75*
G02*
X123640001Y-84785000I-249999J0D01*
G01*
G37*
G36*
G01*
X123640001Y-82735000D02*
X122739999Y-82735000D01*
G75*
G02*
X122490000Y-82485001I0J249999D01*
G01*
X122490000Y-81834999D01*
G75*
G02*
X122739999Y-81585000I249999J0D01*
G01*
X123640001Y-81585000D01*
G75*
G02*
X123890000Y-81834999I0J-249999D01*
G01*
X123890000Y-82485001D01*
G75*
G02*
X123640001Y-82735000I-249999J0D01*
G01*
G37*
%TD*%
%TO.C,D1*%
G36*
G01*
X75800000Y-89200000D02*
X76600000Y-89200000D01*
G75*
G02*
X76850000Y-89450000I0J-250000D01*
G01*
X76850000Y-90275000D01*
G75*
G02*
X76600000Y-90525000I-250000J0D01*
G01*
X75800000Y-90525000D01*
G75*
G02*
X75550000Y-90275000I0J250000D01*
G01*
X75550000Y-89450000D01*
G75*
G02*
X75800000Y-89200000I250000J0D01*
G01*
G37*
G36*
G01*
X75800000Y-87275000D02*
X76600000Y-87275000D01*
G75*
G02*
X76850000Y-87525000I0J-250000D01*
G01*
X76850000Y-88350000D01*
G75*
G02*
X76600000Y-88600000I-250000J0D01*
G01*
X75800000Y-88600000D01*
G75*
G02*
X75550000Y-88350000I0J250000D01*
G01*
X75550000Y-87525000D01*
G75*
G02*
X75800000Y-87275000I250000J0D01*
G01*
G37*
%TD*%
%TO.C,D2*%
G36*
G01*
X97390000Y-87275000D02*
X98190000Y-87275000D01*
G75*
G02*
X98440000Y-87525000I0J-250000D01*
G01*
X98440000Y-88350000D01*
G75*
G02*
X98190000Y-88600000I-250000J0D01*
G01*
X97390000Y-88600000D01*
G75*
G02*
X97140000Y-88350000I0J250000D01*
G01*
X97140000Y-87525000D01*
G75*
G02*
X97390000Y-87275000I250000J0D01*
G01*
G37*
G36*
G01*
X97390000Y-89200000D02*
X98190000Y-89200000D01*
G75*
G02*
X98440000Y-89450000I0J-250000D01*
G01*
X98440000Y-90275000D01*
G75*
G02*
X98190000Y-90525000I-250000J0D01*
G01*
X97390000Y-90525000D01*
G75*
G02*
X97140000Y-90275000I0J250000D01*
G01*
X97140000Y-89450000D01*
G75*
G02*
X97390000Y-89200000I250000J0D01*
G01*
G37*
%TD*%
%TO.C,D3*%
G36*
G01*
X118980000Y-89200000D02*
X119780000Y-89200000D01*
G75*
G02*
X120030000Y-89450000I0J-250000D01*
G01*
X120030000Y-90275000D01*
G75*
G02*
X119780000Y-90525000I-250000J0D01*
G01*
X118980000Y-90525000D01*
G75*
G02*
X118730000Y-90275000I0J250000D01*
G01*
X118730000Y-89450000D01*
G75*
G02*
X118980000Y-89200000I250000J0D01*
G01*
G37*
G36*
G01*
X118980000Y-87275000D02*
X119780000Y-87275000D01*
G75*
G02*
X120030000Y-87525000I0J-250000D01*
G01*
X120030000Y-88350000D01*
G75*
G02*
X119780000Y-88600000I-250000J0D01*
G01*
X118980000Y-88600000D01*
G75*
G02*
X118730000Y-88350000I0J250000D01*
G01*
X118730000Y-87525000D01*
G75*
G02*
X118980000Y-87275000I250000J0D01*
G01*
G37*
%TD*%
%TO.C,D4*%
G36*
G01*
X89180000Y-76600000D02*
X89180000Y-75800000D01*
G75*
G02*
X89430000Y-75550000I250000J0D01*
G01*
X90255000Y-75550000D01*
G75*
G02*
X90505000Y-75800000I0J-250000D01*
G01*
X90505000Y-76600000D01*
G75*
G02*
X90255000Y-76850000I-250000J0D01*
G01*
X89430000Y-76850000D01*
G75*
G02*
X89180000Y-76600000I0J250000D01*
G01*
G37*
G36*
G01*
X91105000Y-76600000D02*
X91105000Y-75800000D01*
G75*
G02*
X91355000Y-75550000I250000J0D01*
G01*
X92180000Y-75550000D01*
G75*
G02*
X92430000Y-75800000I0J-250000D01*
G01*
X92430000Y-76600000D01*
G75*
G02*
X92180000Y-76850000I-250000J0D01*
G01*
X91355000Y-76850000D01*
G75*
G02*
X91105000Y-76600000I0J250000D01*
G01*
G37*
%TD*%
%TO.C,R1*%
G36*
G01*
X76650001Y-84005000D02*
X75749999Y-84005000D01*
G75*
G02*
X75500000Y-83755001I0J249999D01*
G01*
X75500000Y-83104999D01*
G75*
G02*
X75749999Y-82855000I249999J0D01*
G01*
X76650001Y-82855000D01*
G75*
G02*
X76900000Y-83104999I0J-249999D01*
G01*
X76900000Y-83755001D01*
G75*
G02*
X76650001Y-84005000I-249999J0D01*
G01*
G37*
G36*
G01*
X76650001Y-86055000D02*
X75749999Y-86055000D01*
G75*
G02*
X75500000Y-85805001I0J249999D01*
G01*
X75500000Y-85154999D01*
G75*
G02*
X75749999Y-84905000I249999J0D01*
G01*
X76650001Y-84905000D01*
G75*
G02*
X76900000Y-85154999I0J-249999D01*
G01*
X76900000Y-85805001D01*
G75*
G02*
X76650001Y-86055000I-249999J0D01*
G01*
G37*
%TD*%
%TO.C,R2*%
G36*
G01*
X98240001Y-86055000D02*
X97339999Y-86055000D01*
G75*
G02*
X97090000Y-85805001I0J249999D01*
G01*
X97090000Y-85154999D01*
G75*
G02*
X97339999Y-84905000I249999J0D01*
G01*
X98240001Y-84905000D01*
G75*
G02*
X98490000Y-85154999I0J-249999D01*
G01*
X98490000Y-85805001D01*
G75*
G02*
X98240001Y-86055000I-249999J0D01*
G01*
G37*
G36*
G01*
X98240001Y-84005000D02*
X97339999Y-84005000D01*
G75*
G02*
X97090000Y-83755001I0J249999D01*
G01*
X97090000Y-83104999D01*
G75*
G02*
X97339999Y-82855000I249999J0D01*
G01*
X98240001Y-82855000D01*
G75*
G02*
X98490000Y-83104999I0J-249999D01*
G01*
X98490000Y-83755001D01*
G75*
G02*
X98240001Y-84005000I-249999J0D01*
G01*
G37*
%TD*%
%TO.C,R3*%
G36*
G01*
X119830001Y-84005000D02*
X118929999Y-84005000D01*
G75*
G02*
X118680000Y-83755001I0J249999D01*
G01*
X118680000Y-83104999D01*
G75*
G02*
X118929999Y-82855000I249999J0D01*
G01*
X119830001Y-82855000D01*
G75*
G02*
X120080000Y-83104999I0J-249999D01*
G01*
X120080000Y-83755001D01*
G75*
G02*
X119830001Y-84005000I-249999J0D01*
G01*
G37*
G36*
G01*
X119830001Y-86055000D02*
X118929999Y-86055000D01*
G75*
G02*
X118680000Y-85805001I0J249999D01*
G01*
X118680000Y-85154999D01*
G75*
G02*
X118929999Y-84905000I249999J0D01*
G01*
X119830001Y-84905000D01*
G75*
G02*
X120080000Y-85154999I0J-249999D01*
G01*
X120080000Y-85805001D01*
G75*
G02*
X119830001Y-86055000I-249999J0D01*
G01*
G37*
%TD*%
%TO.C,R4*%
G36*
G01*
X87960000Y-75749999D02*
X87960000Y-76650001D01*
G75*
G02*
X87710001Y-76900000I-249999J0D01*
G01*
X87059999Y-76900000D01*
G75*
G02*
X86810000Y-76650001I0J249999D01*
G01*
X86810000Y-75749999D01*
G75*
G02*
X87059999Y-75500000I249999J0D01*
G01*
X87710001Y-75500000D01*
G75*
G02*
X87960000Y-75749999I0J-249999D01*
G01*
G37*
G36*
G01*
X85910000Y-75749999D02*
X85910000Y-76650001D01*
G75*
G02*
X85660001Y-76900000I-249999J0D01*
G01*
X85009999Y-76900000D01*
G75*
G02*
X84760000Y-76650001I0J249999D01*
G01*
X84760000Y-75749999D01*
G75*
G02*
X85009999Y-75500000I249999J0D01*
G01*
X85660001Y-75500000D01*
G75*
G02*
X85910000Y-75749999I0J-249999D01*
G01*
G37*
%TD*%
D10*
%TO.C,U4*%
X79060000Y-90170000D03*
X80010000Y-90170000D03*
X80960000Y-90170000D03*
X80960000Y-87470000D03*
X79060000Y-87470000D03*
X80010000Y-87470000D03*
%TD*%
%TO.C,U5*%
X101600000Y-87470000D03*
X100650000Y-87470000D03*
X102550000Y-87470000D03*
X102550000Y-90170000D03*
X101600000Y-90170000D03*
X100650000Y-90170000D03*
%TD*%
%TO.C,U6*%
X122240000Y-90170000D03*
X123190000Y-90170000D03*
X124140000Y-90170000D03*
X124140000Y-87470000D03*
X122240000Y-87470000D03*
X123190000Y-87470000D03*
%TD*%
M02*
